<?xml version="1.0" encoding="UTF-8"?>
<svg version="1.1" xmlns="http://www.w3.org/2000/svg" width="1024" height="1024">
<path d="M0 0 C2.31695511 1.98511989 2.31695511 1.98511989 4.6875 3.6171875 C5.5228125 4.29201172 5.5228125 4.29201172 6.375 4.98046875 C6.375 5.64046875 6.375 6.30046875 6.375 6.98046875 C6.94347656 7.22410156 7.51195312 7.46773437 8.09765625 7.71875 C10.7941927 9.21271445 12.64102961 10.98144483 14.8125 13.16796875 C15.92431641 14.27205078 15.92431641 14.27205078 17.05859375 15.3984375 C19.78579612 18.43837134 22.05088689 21.62341647 24.375 24.98046875 C25.57253906 24.70332031 26.77007813 24.42617187 28.00390625 24.140625 C38.19307698 21.84737782 47.9097253 20.26556136 58.375 19.98046875 C59.35597656 19.92890625 60.33695313 19.87734375 61.34765625 19.82421875 C85.0967827 19.07325823 109.59480201 24.73267785 131.375 33.98046875 C132.04031738 34.26229004 132.70563477 34.54411133 133.39111328 34.83447266 C151.83424701 42.78887018 168.41933955 53.14533577 183.52587891 66.37402344 C184.80521785 67.48546393 186.10039532 68.57883712 187.40771484 69.65722656 C188.05047363 70.18928711 188.69323242 70.72134766 189.35546875 71.26953125 C189.93578857 71.74342285 190.5161084 72.21731445 191.11401367 72.70556641 C192.375 73.98046875 192.375 73.98046875 192.375 75.98046875 C192.91898438 76.1815625 193.46296875 76.38265625 194.0234375 76.58984375 C197.33766261 78.54975096 199.55702882 81.31347061 202 84.23046875 C202.52634033 84.85381104 203.05268066 85.47715332 203.5949707 86.11938477 C236.49503933 125.58459143 250.86982398 172.73313362 247.15673828 223.99365234 C245.48100332 240.19438697 241.56158159 256.91147672 235.375 271.98046875 C236.07625 272.7796875 236.7775 273.57890625 237.5 274.40234375 C243.11750077 280.87979779 248.20298395 287.37574501 252.81640625 294.6171875 C254.30090218 297.0403657 254.30090218 297.0403657 256.375 298.98046875 C257.92007509 301.8379269 259.31976806 304.75535487 260.7421875 307.67578125 C261.72766033 309.67030282 262.74484387 311.65018604 263.8203125 313.59765625 C271.61111599 327.94465502 276.88282369 344.86564451 279.375 360.98046875 C279.67857422 362.89085937 279.67857422 362.89085937 279.98828125 364.83984375 C286.83798794 413.1037573 275.46331625 463.52207323 246.51171875 502.96875 C241.52726206 509.52314875 236.09358502 515.66743475 230.46875 521.67578125 C228.3597863 523.90915688 228.3597863 523.90915688 226.71875 526.28515625 C226.2753125 526.84460938 225.831875 527.4040625 225.375 527.98046875 C224.715 527.98046875 224.055 527.98046875 223.375 527.98046875 C223.375 528.64046875 223.375 529.30046875 223.375 529.98046875 C222.046875 531.35546875 222.046875 531.35546875 220.125 532.98046875 C219.03058594 533.90859375 219.03058594 533.90859375 217.9140625 534.85546875 C217.07617188 535.55671875 216.23828125 536.25796875 215.375 536.98046875 C214.43398438 537.78484375 213.49296875 538.58921875 212.5234375 539.41796875 C206.36927776 544.63389742 200.12294233 549.54639788 193.375 553.98046875 C192.45976563 554.59277344 191.54453125 555.20507812 190.6015625 555.8359375 C175.71615616 565.42152693 159.66956239 572.31155217 142.81640625 577.60546875 C142.048125 577.85256592 141.27984375 578.09966309 140.48828125 578.35424805 C138.375 578.98046875 138.375 578.98046875 134.97265625 579.625 C131.98073115 581.18620001 131.80030913 581.69853253 130.6796875 584.7421875 C130.18631253 586.37914123 129.71100072 588.02160467 129.25 589.66796875 C123.86774473 606.75764562 115.19244477 622.71675839 104.375 636.98046875 C103.56551024 638.08528156 102.75694558 639.19077266 101.94921875 640.296875 C96.63887937 647.47614702 90.84460319 653.80444419 84.375 659.98046875 C83.57449219 660.79128906 82.77398438 661.60210938 81.94921875 662.4375 C48.72283692 695.26052666 2.99088799 711.3836159 -43.1875 712.23046875 C-76.83729594 711.64461811 -110.23428478 703.78490165 -138.88061523 685.82470703 C-142.01159642 683.68364376 -142.01159642 683.68364376 -145.625 682.98046875 C-147.30482972 681.32706992 -148.96889268 679.65762828 -150.625 677.98046875 C-152.69082866 676.34011516 -154.7604732 674.74138761 -156.875 673.16796875 C-170.73716717 662.65705162 -170.73716717 662.65705162 -175.625 655.91796875 C-176.99281048 654.18341851 -176.99281048 654.18341851 -178.625 652.98046875 C-182.08717278 652.86695489 -184.30268807 653.21412814 -187.625 653.98046875 C-189.67655829 654.36715544 -191.73141825 654.73044072 -193.7878418 655.09033203 C-195.21677507 655.34233903 -196.64420083 655.60312301 -198.06958008 655.87451172 C-210.45339931 658.18111622 -222.7657171 658.10487914 -235.3125 658.04296875 C-237.0930977 658.03794293 -238.87369677 658.03338194 -240.65429688 658.02929688 C-244.97789909 658.01837875 -249.30143403 658.00117396 -253.625 657.98046875 C-253.625 657.32046875 -253.625 656.66046875 -253.625 655.98046875 C-254.62140503 655.91460571 -254.62140503 655.91460571 -255.63793945 655.84741211 C-281.54038974 653.85352002 -306.71372382 643.63341068 -328.625 629.98046875 C-330.23568359 628.97886719 -330.23568359 628.97886719 -331.87890625 627.95703125 C-343.45178622 620.4782608 -353.63198775 611.40935934 -363.625 601.98046875 C-364.4809375 601.17867187 -365.336875 600.376875 -366.21875 599.55078125 C-375.61390042 590.48267721 -383.53061533 580.25382825 -390.28515625 569.08984375 C-391.58325012 566.87705221 -391.58325012 566.87705221 -393.625 564.98046875 C-394.32248583 563.66299551 -394.99459957 562.33132682 -395.625 560.98046875 C-396.285 560.98046875 -396.945 560.98046875 -397.625 560.98046875 C-399.00732443 559.35420471 -400.34437515 557.68796855 -401.625 555.98046875 C-400.965 554.99046875 -400.305 554.00046875 -399.625 552.98046875 C-399.91375 552.42617188 -400.2025 551.871875 -400.5 551.30078125 C-400.87125 550.57632813 -401.2425 549.851875 -401.625 549.10546875 C-401.99625 548.38617187 -402.3675 547.666875 -402.75 546.92578125 C-403.625 544.98046875 -403.625 544.98046875 -403.625 542.98046875 C-404.285 542.65046875 -404.945 542.32046875 -405.625 541.98046875 C-413.47711907 525.01989155 -419.2503604 502.74128082 -418.625 483.98046875 C-419.285 483.65046875 -419.945 483.32046875 -420.625 482.98046875 C-421.11959886 456.84916206 -419.55309643 431.11151291 -411.09350586 406.18725586 C-410.56473951 403.69662582 -410.74661746 402.35216403 -411.625 399.98046875 C-412.87452102 398.32677465 -414.19847872 396.72856251 -415.5625 395.16796875 C-438.61565651 367.55524806 -453.21697099 331.78634319 -456.625 295.98046875 C-456.69058105 295.3040332 -456.75616211 294.62759766 -456.82373047 293.93066406 C-460.08558951 257.80772631 -452.88501778 220.86701706 -435.625 188.98046875 C-435.13386719 188.01109375 -434.64273438 187.04171875 -434.13671875 186.04296875 C-421.53691607 161.62419624 -401.57302175 140.21887815 -379.625 123.98046875 C-378.76261719 123.33464844 -377.90023437 122.68882812 -377.01171875 122.0234375 C-349.36780474 101.98046875 -349.36780474 101.98046875 -337.625 101.98046875 C-337.625 100.66046875 -337.625 99.34046875 -337.625 97.98046875 C-336.965 97.98046875 -336.305 97.98046875 -335.625 97.98046875 C-335.295 98.64046875 -334.965 99.30046875 -334.625 99.98046875 C-333.54863281 99.65433594 -332.47226562 99.32820312 -331.36328125 98.9921875 C-330.66243408 98.78287598 -329.96158691 98.57356445 -329.23950195 98.35791016 C-327.69299333 97.89440041 -326.1485615 97.42390923 -324.60620117 96.94677734 C-319.86061602 95.51193976 -315.37229209 94.69375994 -310.4375 94.10546875 C-307.27220285 93.54581149 -307.27220285 93.54581149 -304.625 91.98046875 C-302.06175794 87.93552136 -300.72308426 83.66432354 -299.33056641 79.12597656 C-292.10979057 57.16882154 -277.07174731 36.91488017 -261.578125 20.12109375 C-259.99597392 18.38705617 -258.51553119 16.63347493 -257.0625 14.79296875 C-253.87403477 11.11397041 -250.37067484 8.08172641 -246.625 4.98046875 C-246.10115723 4.54428223 -245.57731445 4.1080957 -245.03759766 3.65869141 C-216.47759834 -20.01953125 -216.47759834 -20.01953125 -209.625 -20.01953125 C-209.295 -20.67953125 -208.965 -21.33953125 -208.625 -22.01953125 C-205.66060422 -23.38315331 -202.67113905 -24.60354682 -199.640625 -25.80859375 C-195.95312361 -27.10331792 -195.95312361 -27.10331792 -193.625 -30.01953125 C-191.62667156 -30.36274336 -189.62611412 -30.69295293 -187.625 -31.01953125 C-185.17772228 -31.75581824 -182.76520952 -32.57530576 -180.34423828 -33.39379883 C-118.68713669 -54.18967749 -50.02504651 -42.05974893 0 0 Z M-208.625 44.98046875 C-209.52992188 45.70234375 -210.43484375 46.42421875 -211.3671875 47.16796875 C-213.26724089 48.69327113 -215.03315295 50.13727743 -216.625 51.98046875 C-216.625 52.64046875 -216.625 53.30046875 -216.625 53.98046875 C-217.17929687 54.19316406 -217.73359375 54.40585938 -218.3046875 54.625 C-221.41654012 56.44286676 -223.47935381 58.92782652 -225.75 61.66796875 C-226.47014282 62.53518555 -226.47014282 62.53518555 -227.20483398 63.41992188 C-241.05393083 80.39638088 -250.59604089 99.32895112 -256.37109375 120.46484375 C-257.23264455 123.60873647 -258.12670656 126.73681625 -259.1015625 129.84765625 C-259.32279785 130.56034668 -259.5440332 131.27303711 -259.77197266 132.00732422 C-261.41617406 135.81053994 -264.05609461 138.00059126 -267.625 139.98046875 C-273.61947135 142.23911694 -279.92528463 143.03962617 -286.23339844 143.94506836 C-320.76644899 148.96850619 -352.77252389 165.2569334 -374.625 192.98046875 C-377.79826435 197.29255809 -380.71783704 201.7605023 -383.56298828 206.29394531 C-384.48039546 207.75083009 -385.42343395 209.19151622 -386.37109375 210.62890625 C-399.44933386 231.07851805 -404.84481571 257.96365269 -403.625 281.98046875 C-403.5945459 282.64143555 -403.5640918 283.30240234 -403.53271484 283.98339844 C-401.62494052 319.65471918 -385.87874373 351.94450703 -359.625 375.98046875 C-358.7175 376.68171875 -357.81 377.38296875 -356.875 378.10546875 C-352.78722552 381.51194748 -350.02053756 385.77532676 -349.36254883 391.10717773 C-349.09114094 398.20296235 -350.99874843 402.8658274 -354.3125 409.04296875 C-370.17976261 440.56860425 -371.61015014 476.59475541 -360.625 509.98046875 C-354.87673916 526.19069362 -346.94097177 540.96054756 -335.625 553.98046875 C-334.91601562 554.810625 -334.20703125 555.64078125 -333.4765625 556.49609375 C-325.50534119 565.61405216 -316.79708764 573.40270817 -306.625 579.98046875 C-305.53703125 580.69074219 -304.4490625 581.40101563 -303.328125 582.1328125 C-276.76182076 599.02409356 -246.83025402 605.33311585 -215.625 603.98046875 C-215.295 603.65046875 -214.965 603.32046875 -214.625 602.98046875 C-212.81394214 602.8701505 -211.00080716 602.79385527 -209.1875 602.73046875 C-198.53064894 601.99106168 -187.93588694 599.01438331 -178.1875 594.66796875 C-173.13513182 592.51765288 -168.0423956 592.05676535 -162.625 592.98046875 C-158.12439509 595.02176478 -155.63893755 598.18994517 -152.8125 602.10546875 C-151.93605222 603.27918358 -151.05712494 604.4510508 -150.17578125 605.62109375 C-149.74475098 606.19408203 -149.3137207 606.76707031 -148.86962891 607.35742188 C-143.78332788 613.99016594 -138.04078758 619.65697476 -131.625 624.98046875 C-130.80257813 625.69074219 -129.98015625 626.40101563 -129.1328125 627.1328125 C-101.68250489 650.40589939 -65.93131089 660.7053443 -30.24365234 657.78564453 C-3.90872233 655.11778027 20.42143456 644.18699329 40.375 626.98046875 C41.70917969 625.87251953 41.70917969 625.87251953 43.0703125 624.7421875 C67.12459875 604.11884177 80.90384885 575.62324558 87.9375 545.23046875 C89.28279844 539.7670623 90.86773653 536.5050467 95.796875 533.5078125 C100.68076983 531.4230932 105.61007503 530.58130272 110.8125 529.60546875 C148.64926597 522.04208435 183.49332089 501.20238169 205.4375 468.85546875 C214.9283247 454.45187567 221.5684641 439.00354018 225.625 422.23046875 C225.78838867 421.55765869 225.95177734 420.88484863 226.12011719 420.19165039 C233.57500348 387.50698103 226.25557996 354.25877612 209.5078125 325.80859375 C201.91222038 313.89517541 192.54463855 303.58218909 181.87109375 294.3828125 C178.26508622 290.91224187 175.7684259 287.25452287 175.25390625 282.1640625 C175.69924186 274.13365591 179.51975131 266.51048871 182.8125 259.29296875 C186.68139926 250.770836 189.23573456 242.07897683 191.375 232.98046875 C191.6225 231.95308594 191.87 230.92570313 192.125 229.8671875 C194.89786912 215.63697722 194.47025907 199.30550237 192.375 184.98046875 C192.045 184.65046875 191.715 184.32046875 191.375 183.98046875 C191.20344808 182.64228974 191.07732879 181.29818886 190.97265625 179.953125 C190.48488437 175.19476464 189.35932119 170.93226421 187.8125 166.41796875 C187.55073975 165.64638428 187.28897949 164.8747998 187.01928711 164.07983398 C175.14440359 130.299088 150.75576806 103.69956053 118.953125 87.69140625 C110.81429804 83.79969642 102.60009395 80.90124248 93.875 78.66796875 C93.20412354 78.49620117 92.53324707 78.32443359 91.84204102 78.14746094 C88.26861104 77.2839609 85.04081904 76.90523739 81.375 76.98046875 C81.045 76.65046875 80.715 76.32046875 80.375 75.98046875 C60.27114094 72.21099518 39.01868052 76.07200965 19.61621094 81.44213867 C12.86428524 83.21148467 6.83203937 83.56494513 0.375 80.60546875 C-4.24124052 76.5662583 -7.84875371 71.79627869 -11.625 66.98046875 C-26.71051333 47.98679135 -44.72717969 32.56609944 -66.9375 22.54296875 C-67.66614258 22.21272705 -68.39478516 21.88248535 -69.14550781 21.54223633 C-73.59003738 19.61852229 -77.92197778 18.32325293 -82.67480469 17.39038086 C-84.625 16.98046875 -84.625 16.98046875 -87.5625 15.98046875 C-128.3756987 2.65370999 -176.71780085 18.66049261 -208.625 44.98046875 Z " fill="#010101" transform="translate(593.625,174.01953125)"/>
<path d="M0 0 C4.45608236 3.99601486 8.49060027 8.14587701 12 13 C12.96164062 12.83886719 13.92328125 12.67773438 14.9140625 12.51171875 C19.40366376 11.87405542 23.8464612 11.81611704 28.375 11.8125 C29.57382812 11.79413086 29.57382812 11.79413086 30.796875 11.77539062 C39.43771857 11.7544177 47.00418002 13.63035593 54.875 17.125 C55.56335938 17.42921875 56.25171875 17.7334375 56.9609375 18.046875 C63.25225046 20.93430595 68.64816566 24.61009667 74 29 C74.72703125 29.56460938 75.4540625 30.12921875 76.203125 30.7109375 C84.71745369 37.63289174 90.15859007 46.80344646 94 57 C94 57.66 94 58.32 94 59 C94.72703125 59.13535156 95.4540625 59.27070313 96.203125 59.41015625 C111.69282908 62.72654161 123.2349159 71.31986442 132.1796875 84.17578125 C142.87964479 100.77678795 144.85010109 118.88134732 141 138 C140.72800781 139.01578125 140.45601562 140.0315625 140.17578125 141.078125 C139.68728166 144.07758859 139.68728166 144.07758859 141.66015625 146.31640625 C142.84931641 147.42822266 142.84931641 147.42822266 144.0625 148.5625 C152.91962334 157.75073075 156.9360369 169.14568012 157.02734375 181.78515625 C156.50995755 201.45769855 148.73245529 215.26754471 135 229 C135.65226562 229.53367187 136.30453125 230.06734375 136.9765625 230.6171875 C147.23451753 239.36216981 153.9145597 249.66343794 155.22753906 263.37646484 C156.92343404 291.47605802 149.84775535 322.3517226 131.6640625 344.375 C130 346 130 346 128 346 C128 346.66 128 347.32 128 348 C125.98046875 349.5859375 125.98046875 349.5859375 123.1875 351.375 C122.29417969 351.96023438 121.40085937 352.54546875 120.48046875 353.1484375 C117 355 117 355 114.30151367 355.69848633 C108.47488355 357.17985172 108.47488355 357.17985172 104.52758789 361.41503906 C103.45010309 364.56570246 102.66257511 367.68770124 101.9375 370.9375 C101.31090286 373.30028653 100.67135288 375.65967238 100.01953125 378.015625 C99.53347412 379.78196289 99.53347412 379.78196289 99.03759766 381.58398438 C93.32692076 400.38487642 81.82765695 417.33982063 69 432 C68.54367187 432.52335937 68.08734375 433.04671875 67.6171875 433.5859375 C60.96673606 441.16105064 54.094963 447.93724528 46 454 C45.08605469 454.70253906 44.17210937 455.40507813 43.23046875 456.12890625 C22.08176617 471.62317196 -1.40146466 480.42971886 -27 485 C-28.05574219 485.19464844 -29.11148438 485.38929688 -30.19921875 485.58984375 C-68.0146663 489.67064744 -106.57066538 481.02102172 -138.7890625 460.90625 C-141.66426876 458.82983653 -141.66426876 458.82983653 -144 459 C-145.69001404 457.35701244 -147.35213738 455.68526092 -149 454 C-151.00836831 452.29356088 -153.02595003 450.60913334 -155.0625 448.9375 C-159.76114629 445.02094747 -164.23961714 440.95328562 -168.5625 436.625 C-169.05049072 436.13765381 -169.53848145 435.65030762 -170.04125977 435.14819336 C-172.21524257 432.94085214 -174.23175385 430.70641709 -176.15234375 428.2734375 C-177.97274175 425.80450094 -177.97274175 425.80450094 -181 424 C-181 423.34 -181 422.68 -181 422 C-181.93270213 420.3561883 -181.93270213 420.3561883 -183.1875 418.59375 C-183.63867188 417.93246094 -184.08984375 417.27117187 -184.5546875 416.58984375 C-185.03164063 415.90019531 -185.50859375 415.21054687 -186 414.5 C-186.94171918 413.13832496 -187.87942895 411.77386557 -188.8125 410.40625 C-189.23144531 409.80103516 -189.65039062 409.19582031 -190.08203125 408.57226562 C-191 407 -191 407 -191 405 C-191.66 404.67 -192.32 404.34 -193 404 C-194.10905121 401.88820561 -195.139927 399.73489529 -196.125 397.5625 C-196.66382813 396.38816406 -197.20265625 395.21382812 -197.7578125 394.00390625 C-199 391 -199 391 -199 389 C-199.66 388.67 -200.32 388.34 -201 388 C-201.93647451 385.69236344 -202.7750512 383.42017312 -203.5625 381.0625 C-205.0795525 376.44966997 -205.0795525 376.44966997 -207 372 C-207.36010878 370.35981704 -207.68980202 368.71285017 -208 367.0625 C-208.52783073 364.2625229 -209.09691584 361.70925247 -210 359 C-211.96535445 358.22281816 -211.96535445 358.22281816 -214.375 357.75 C-226.70870236 354.31908422 -235.9292989 345.97578592 -242.3828125 335.10546875 C-247.47667144 326.07648905 -251.09453641 316.93583717 -254 307 C-254.24878906 306.24904053 -254.49757813 305.49808105 -254.75390625 304.72436523 C-256.77676432 298.47385715 -257.74177059 292.47823999 -258.25 285.9375 C-258.32935791 284.9367041 -258.40871582 283.9359082 -258.49047852 282.90478516 C-259.64907361 266.54860947 -259.34689297 250.93786919 -248.42578125 237.58984375 C-246.6850374 235.64879513 -244.91638649 233.76897214 -243 232 C-243.45890625 231.52691406 -243.9178125 231.05382812 -244.390625 230.56640625 C-251.21831693 223.20799037 -255.33666158 215.33455774 -255.1484375 205.1328125 C-254.62425894 197.6011942 -251.51490952 191.54685437 -248 185 C-248.53109375 184.443125 -249.0621875 183.88625 -249.609375 183.3125 C-260 172.08759124 -260 172.08759124 -260 166 C-260.99 166 -261.98 166 -263 166 C-263 165.34 -263 164.68 -263 164 C-263.66 163.67 -264.32 163.34 -265 163 C-264.01 163 -263.02 163 -262 163 C-262.15855469 162.14148438 -262.31710937 161.28296875 -262.48046875 160.3984375 C-264.61123484 146.46034351 -261.48645441 134.09559667 -257 121 C-256.34 121 -255.68 121 -255 121 C-254.62101562 119.66388672 -254.62101562 119.66388672 -254.234375 118.30078125 C-250.24241932 107.62608963 -239.49107803 101.35550547 -230 96 C-229.01 95.67 -228.02 95.34 -227 95 C-226.90203125 93.98421875 -226.8040625 92.9684375 -226.703125 91.921875 C-224.73076421 73.13977729 -218.96698814 58.4029137 -204.4296875 45.765625 C-196.46749184 39.59086102 -187.30966753 34.50686194 -177 35 C-177 34.34 -177 33.68 -177 33 C-171.555 33.495 -171.555 33.495 -166 34 C-165.34 32.35 -164.68 30.7 -164 29 C-153.62275266 12.08567312 -133.65090004 1.6035433 -114.85302734 -2.92456055 C-107.70590451 -4.45533667 -100.49996782 -4.80402883 -93.2890625 -3.515625 C-88.34193429 -2.58909493 -88.34193429 -2.58909493 -83.76953125 -4.31640625 C-82.27209401 -5.54350969 -80.79844693 -6.80011568 -79.34765625 -8.08203125 C-56.73669975 -26.55454314 -20.59623748 -15.88690495 0 0 Z M-101 140 C-101.70962891 141.06927734 -101.70962891 141.06927734 -102.43359375 142.16015625 C-110.3966939 153.69345725 -118.41957996 159.35489499 -132 162.75 C-140.30730483 163.4422754 -147.89318169 162.96955239 -156 161 C-156.23074219 161.87140625 -156.46148437 162.7428125 -156.69921875 163.640625 C-159.63490851 174.36227454 -162.59922087 184.80360376 -169.86328125 193.4765625 C-171.19934177 194.95036123 -171.19934177 194.95036123 -171 197 C-171.66 197 -172.32 197 -173 197 C-173 197.66 -173 198.32 -173 199 C-173.58007812 199.2784375 -174.16015625 199.556875 -174.7578125 199.84375 C-177.57726103 201.29768165 -180.16423148 203.02807272 -182.8046875 204.78125 C-185 206 -185 206 -191 208 C-191 214.6 -191 221.2 -191 228 C-187.7 228 -184.4 228 -181 228 C-178.60260201 225.69303803 -178.60260201 225.69303803 -177.37890625 223.78515625 C-170.82197937 215.29644355 -159.19247914 211.64934098 -149 210 C-146.01213649 209.83425804 -143.02715356 209.81224875 -140.03515625 209.796875 C-139.16539658 209.79117493 -138.2956369 209.78547485 -137.39952087 209.77960205 C-135.55794481 209.77017217 -133.71635202 209.76362608 -131.87475586 209.75976562 C-129.10303804 209.75014077 -126.33208835 209.71913239 -123.56054688 209.6875 C-107.39638156 209.58974624 -90.35461112 210.64377022 -78 222.5 C-75.30396208 225.45970911 -73.08225934 228.58509468 -71 232 C-69.93072266 231.58427734 -69.93072266 231.58427734 -68.83984375 231.16015625 C-63.50338651 229.14192679 -58.66900083 227.59052092 -53 227 C-52.01 226.67 -51.02 226.34 -50 226 C-47.65095874 226.6090107 -45.31765729 227.28072705 -43 228 C-42.13375 228.144375 -41.2675 228.28875 -40.375 228.4375 C-38 229 -38 229 -35.375 230.625 C-34.199375 231.305625 -34.199375 231.305625 -33 232 C-29.39716468 230.79905489 -29.17039326 229.9906154 -27.3125 226.8125 C-21.68442451 218.10073695 -13.65461484 214.12440087 -3.84741211 211.40258789 C5.24809163 209.47207847 14.45357792 209.66325302 23.70703125 209.68432617 C26.6253753 209.68750041 29.54271712 209.66391345 32.4609375 209.63867188 C34.34114457 209.63639957 36.22135433 209.63569507 38.1015625 209.63671875 C38.96117584 209.627509 39.82078918 209.61829926 40.70645142 209.60881042 C51.68691198 209.6917428 64.13620377 214.26972475 72.05859375 222.01171875 C73.39580035 223.6557159 74.70132761 225.32539613 76 227 C76.99 227 77.98 227 79 227 C79 226.34 79 225.68 79 225 C79.99 225 80.98 225 82 225 C82.33 225.66 82.66 226.32 83 227 C83.66 227 84.32 227 85 227 C85 221.06 85 215.12 85 209 C83.39125 208.195625 81.7825 207.39125 80.125 206.5625 C64.45920225 197.94429764 57.32363705 185.6144277 52 169 C51.39699654 167.20794151 50.79301912 165.41621004 50.1875 163.625 C49.795625 162.42875 49.40375 161.2325 49 160 C47.49373047 160.06960938 47.49373047 160.06960938 45.95703125 160.140625 C33.06396037 160.55586588 21.12064518 158.76246336 11 150 C9.96168317 148.6962838 8.95021722 147.36925711 8 146 C4.7913857 147.50775163 1.94131691 149.33849118 -1 151.3125 C-18.6209716 162.55346464 -40.63870788 166.71951624 -61.20068359 162.55419922 C-76.75707687 158.85780011 -89.98509941 151.72553934 -101 140 Z M-262 163 C-261 165 -261 165 -261 165 Z M-135 234.5 C-137.75450916 234.95908486 -140.03771204 234.96877164 -142.8125 234.875 C-149.08196376 234.81902264 -153.58070371 236.44089795 -158.8125 239.8125 C-164.81805483 245.81805483 -165 252.87861846 -165 261 C-164.45536395 272.69333593 -163.07235065 284.60043991 -154.7734375 293.53125 C-146.56380119 300.33042016 -136.47821416 300.20464326 -126.375 300.25 C-125.24964844 300.270625 -124.12429688 300.29125 -122.96484375 300.3125 C-113.14391198 300.35791471 -103.53045507 299.32644232 -95.71875 292.859375 C-87.94530659 284.44992258 -86.6456035 272.8892441 -86.6875 261.9375 C-86.67138672 261.09123047 -86.65527344 260.24496094 -86.63867188 259.37304688 C-86.63332345 252.43613859 -87.75685967 246.81994785 -92.1875 241.25 C-100.31855276 234.74515779 -107.20848799 234.36446431 -117.375 234.25 C-118.65761719 234.22035156 -119.94023437 234.19070313 -121.26171875 234.16015625 C-128.18281169 233.73358818 -128.18281169 233.73358818 -135 234.5 Z M-10.8125 241.625 C-18.43784858 251.87800249 -16.39146351 265.46632376 -14.6953125 277.27734375 C-13.81939102 281.96696831 -12.56817606 284.99666673 -10 289 C-9.46375 289.886875 -8.9275 290.77375 -8.375 291.6875 C-0.02908934 299.81378144 10.14376203 300.19856563 21.125 300.25 C22.20265625 300.270625 23.2803125 300.29125 24.390625 300.3125 C34.18295263 300.35969194 43.98563954 298.97148427 52 293 C60.70085491 283.70263258 61.24504938 271.20920702 61.4375 259.125 C61.45989746 258.24553711 61.48229492 257.36607422 61.50537109 256.45996094 C61.48306801 250.26439958 60.13224591 246.34652667 57 241 C56.34 241 55.68 241 55 241 C55 240.34 55 239.68 55 239 C46.57760117 234.60746311 38.34807665 234.34269409 29.0625 234.25 C27.63993878 234.22177265 26.2174104 234.19183605 24.79492188 234.16015625 C5.57775457 233.09977823 5.57775457 233.09977823 -10.8125 241.625 Z M-228 258 C-234.81814583 268.68176181 -232.19343943 281.86850413 -229.76806641 293.5625 C-227.07216148 305.73429241 -222.84191344 320.32890512 -212.3125 328.0625 C-210.6728125 329.0215625 -210.6728125 329.0215625 -209 330 C-208.40574219 330.36222656 -207.81148438 330.72445312 -207.19921875 331.09765625 C-203.34223884 332.68018264 -199.21677155 332.35691631 -195.09375 332.4609375 C-192 333 -192 333 -189.78515625 334.37109375 C-187.00850518 338.46012256 -186.10515545 342.92560594 -184.9375 347.6875 C-178.98160763 371.11611641 -169.7792243 391.49156593 -154 410 C-153.34128906 410.78117188 -152.68257813 411.56234375 -152.00390625 412.3671875 C-147.67737416 417.37685623 -143.10443928 421.79356393 -138 426 C-137.26265625 426.62519531 -136.5253125 427.25039063 -135.765625 427.89453125 C-107.9038336 450.97611334 -72.87622585 460.59392794 -37 457.3125 C-0.97223532 453.53628963 31.13761442 435.38842719 53.97265625 407.44140625 C68.73763762 388.5616779 76.76309903 367.12214418 81.82128906 343.93286133 C82.0478418 342.94697021 82.27439453 341.9610791 82.5078125 340.9453125 C82.70004395 340.06375488 82.89227539 339.18219727 83.09033203 338.27392578 C84.21517167 335.46212857 85.4037204 334.50727276 88 333 C90.953125 332.62890625 90.953125 332.62890625 94.25 332.5625 C102.08580016 332.08919663 106.99191606 330.32058394 112.5625 324.75 C123.11681821 311.71373025 126.83662056 293.32543222 127.9375 277 C127.99534668 276.23518311 128.05319336 275.47036621 128.11279297 274.68237305 C128.36922305 269.04152481 127.3956754 264.13793664 125 259 C122.42293724 256.2139862 120.65687276 255.20964024 117.0625 254.0625 C113.0379894 253.98036713 111.35231116 254.74232105 108 257 C104.0731287 260.81161722 100.51196974 264.62410758 99 270 C93.76232394 271.04753521 93.76232394 271.04753521 91 271 C88.5198649 269.15579697 87.36858837 267.73717673 86 265 C85.34 265 84.68 265 84 265 C83.84144531 266.12535156 83.68289063 267.25070312 83.51953125 268.41015625 C81.034367 285.1287004 77.49778128 299.86980052 65 312 C65 312.66 65 313.32 65 314 C64.34 314.2475 63.68 314.495 63 314.75 C60.68464576 315.71473093 58.62757806 316.74415893 56.4375 317.9375 C39.82338987 326.3385972 16.83853316 325.88052442 -1 322 C-13.76382416 317.75024327 -24.67924387 311.20499595 -31 299 C-36.3659047 286.14851001 -37.83970805 273.11788442 -38.75390625 259.29296875 C-38.86788012 256.97322863 -38.86788012 256.97322863 -40 255 C-43.53635939 253.66856493 -47.20099474 253.83243866 -50.9375 253.8125 C-52.14277344 253.79832031 -53.34804688 253.78414062 -54.58984375 253.76953125 C-57.89609429 253.99297774 -59.99668082 254.70562618 -63 256 C-63.15033691 257.3300708 -63.15033691 257.3300708 -63.30371094 258.68701172 C-63.68776192 262.0245976 -64.08441005 265.36020973 -64.48925781 268.6953125 C-64.66087444 270.12995038 -64.82767234 271.56517426 -64.98925781 273.00097656 C-66.69328338 288.08475845 -70.67575114 302.17896763 -82.75 312.375 C-100.45125024 325.41101109 -120.00264856 324.40607791 -141 324 C-141.33 324 -141.66 324 -142 324 C-154.93290846 320.48274692 -167.17473739 316.68278643 -175 305 C-177.52036832 300.41190094 -179.78561775 295.74427015 -182 291 C-182.37511719 290.32582031 -182.75023437 289.65164063 -183.13671875 288.95703125 C-184.30080702 286.31808001 -184.6115218 283.79212103 -185 280.9375 C-185.85670205 274.92698721 -186.8761846 268.96578602 -188 263 C-190.02150519 265.73797624 -190.02150519 265.73797624 -190.6875 268.125 C-192 270 -192 270 -195.3125 271.0625 C-199 271 -199 271 -201.6875 268.9375 C-203.96256144 266.04755709 -205.97584839 263.06887503 -208 260 C-210.54607604 257.05609958 -212.14103471 255.58469171 -216 255 C-216.763125 254.731875 -217.52625 254.46375 -218.3125 254.1875 C-222.28395244 253.91042192 -225.02530525 255.54072266 -228 258 Z " fill="#010101" transform="translate(561,279)"/>
<path d="M0 0 C0.66 0.66 1.32 1.32 2 2 C3.58221351 2.68791892 5.16763184 3.36910841 6.765625 4.01953125 C9.45697198 5.20052442 12.02298176 6.57109624 14.625 7.9375 C37.04532421 19.18954316 63.90796573 19.9917494 87.625 12.34765625 C92.22596161 10.51046672 96.51961719 8.21741317 100.80053711 5.72998047 C104.54138963 3.59132962 107.6812402 2.28710284 112 2 C115.97472063 3.52873871 117.61853665 4.42780497 120 8 C120.8193885 11.17122114 120.8020827 13.82271758 120 17 C111.28366835 29.54587898 90.66742045 35.31283661 76.625 38.1875 C49.22821885 42.56310102 20.67287316 37.87976358 -2.828125 22.7109375 C-6.2608995 20.00670148 -7.76606559 17.84216389 -8.9375 13.625 C-9.01566625 9.09135775 -7.92543893 7.39983444 -5 4 C-2.8125 2.75 -2.8125 2.75 -1 2 C-0.67 1.34 -0.34 0.68 0 0 Z " fill="#030303" transform="translate(455,648)"/>
<path d="M0 0 C0.33 0.66 0.66 1.32 1 2 C2.64232772 2.72455635 4.31624835 3.37774395 6 4 C7.155 4.515625 8.31 5.03125 9.5 5.5625 C17.50586762 8.8506242 24.70515836 8.8210087 32.7734375 5.9375 C34.9869135 5.00551011 37.02732721 3.91627367 39.125 2.75 C42.07030603 1.23343089 43.19752105 0.99665219 46.6875 0.9375 C50.63113289 2.20243885 52.37777362 3.83790348 55 7 C56.5547669 10.10953379 56.28644437 12.56266761 56 16 C52.87726664 22.95517885 46.31979654 26.25038068 39.51171875 29.0078125 C25.54857102 33.59538576 11.18159145 32.53098814 -2 26 C-7.52137382 22.83032244 -11.22457408 19.84322836 -12.9375 13.5625 C-13.01129054 9.35643909 -12.41767072 7.43153264 -10 4 C-6.78177028 2.01428379 -3.71305811 0.71404964 0 0 Z " fill="#030303" transform="translate(489,605)"/>
<path d="M0 0 C0.99 0 1.98 0 3 0 C3 6.6 3 13.2 3 20 C-0.3 20 -3.6 20 -7 20 C-6.01 18.515 -6.01 18.515 -5 17 C-3.02 17 -1.04 17 1 17 C1.33 11.72 1.66 6.44 2 1 C1.34 0.67 0.68 0.34 0 0 Z " fill="#282928" transform="translate(644,487)"/>
<path d="M0 0 C0.66 0.33 1.32 0.66 2 1 C-0.97 3.97 -3.94 6.94 -7 10 C-7 6.04435836 -5.59478606 4.89133304 -3 2 C-2.01 1.34 -1.02 0.68 0 0 Z " fill="#191919" transform="translate(690,706)"/>
<path d="M0 0 C3.3 0.66 6.6 1.32 10 2 C10 2.33 10 2.66 10 3 C4.39 3 -1.22 3 -7 3 C-7 2.67 -7 2.34 -7 2 C-4.69 2 -2.38 2 0 2 C0 1.34 0 0.68 0 0 Z " fill="#1E1E1E" transform="translate(508,504)"/>
<path d="M0 0 C2.31 0 4.62 0 7 0 C7.33 0.99 7.66 1.98 8 3 C5.03 3 2.06 3 -1 3 C-0.67 2.01 -0.34 1.02 0 0 Z " fill="#1E1F1D" transform="translate(638,504)"/>
<path d="M0 0 C2.64 0 5.28 0 8 0 C8 0.99 8 1.98 8 3 C5.36 2.34 2.72 1.68 0 1 C0 0.67 0 0.34 0 0 Z " fill="#151615" transform="translate(432,605)"/>
<path d="M0 0 C2.31 0.33 4.62 0.66 7 1 C7 1.33 7 1.66 7 2 C4.69 2 2.38 2 0 2 C0 1.34 0 0.68 0 0 Z " fill="#0F0F0E" transform="translate(371,504)"/>
<path d="M0 0 C0.33 0 0.66 0 1 0 C1 3.63 1 7.26 1 11 C0.67 11 0.34 11 0 11 C0 7.37 0 3.74 0 0 Z " fill="#131313" transform="translate(785,370)"/>
<path d="M0 0 C0.66 0.33 1.32 0.66 2 1 C2 2.65 2 4.3 2 6 C1.67 5.34 1.34 4.68 1 4 C0.34 3.67 -0.32 3.34 -1 3 C-0.67 2.01 -0.34 1.02 0 0 Z " fill="#20201F" transform="translate(185,711)"/>
<path d="M0 0 C2.64 0 5.28 0 8 0 C8 0.33 8 0.66 8 1 C5.36 1 2.72 1 0 1 C0 0.67 0 0.34 0 0 Z " fill="#121212" transform="translate(432,577)"/>
<path d="M0 0 C1.65 0.33 3.3 0.66 5 1 C5 1.33 5 1.66 5 2 C3.02 2 1.04 2 -1 2 C-0.67 1.34 -0.34 0.68 0 0 Z " fill="#0E0F0E" transform="translate(592,288)"/>
<path d="M0 0 C0.66 0.66 1.32 1.32 2 2 C1.67 2.99 1.34 3.98 1 5 C1 4.34 1 3.68 1 3 C0.34 2.67 -0.32 2.34 -1 2 C-0.67 1.34 -0.34 0.68 0 0 Z " fill="#101111" transform="translate(777,335)"/>
<path d="M0 0 C1.98 0 3.96 0 6 0 C6 0.33 6 0.66 6 1 C4.02 1 2.04 1 0 1 C0 0.67 0 0.34 0 0 Z " fill="#0F0F0F" transform="translate(504,766)"/>
<path d="M0 0 C0.66 0.66 1.32 1.32 2 2 C1.34 2.66 0.68 3.32 0 4 C-0.33 3.01 -0.66 2.02 -1 1 C-0.67 0.67 -0.34 0.34 0 0 Z " fill="#0F0F0E" transform="translate(796,640)"/>
<path d="M0 0 C2.475 0.495 2.475 0.495 5 1 C5 1.33 5 1.66 5 2 C3.35 2 1.7 2 0 2 C0 1.34 0 0.68 0 0 Z " fill="#131312" transform="translate(441,576)"/>
<path d="M0 0 C0.33 0 0.66 0 1 0 C1 1.98 1 3.96 1 6 C0.67 6 0.34 6 0 6 C0 4.02 0 2.04 0 0 Z " fill="#111111" transform="translate(522,558)"/>
<path d="M0 0 C1.98 0 3.96 0 6 0 C6 0.33 6 0.66 6 1 C4.02 1 2.04 1 0 1 C0 0.67 0 0.34 0 0 Z " fill="#101010" transform="translate(418,444)"/>
<path d="M0 0 C0.66 1.32 1.32 2.64 2 4 C1.34 4 0.68 4 0 4 C0 2.68 0 1.36 0 0 Z " fill="#131312" transform="translate(312,603)"/>
<path d="M0 0 C1.98 0.99 1.98 0.99 4 2 C2.68 2 1.36 2 0 2 C0 1.34 0 0.68 0 0 Z " fill="#121313" transform="translate(585,576)"/>
<path d="M0 0 C0.33 0 0.66 0 1 0 C1 1.65 1 3.3 1 5 C0.67 5 0.34 5 0 5 C0 3.35 0 1.7 0 0 Z " fill="#111110" transform="translate(620,528)"/>
<path d="M0 0 C0.66 1.32 1.32 2.64 2 4 C1.34 3.67 0.68 3.34 0 3 C0 2.01 0 1.02 0 0 Z " fill="#121111" transform="translate(808,513)"/>
<path d="M0 0 C0.99 0.33 1.98 0.66 3 1 C2.01 1.33 1.02 1.66 0 2 C0 1.34 0 0.68 0 0 Z " fill="#101110" transform="translate(532,446)"/>
<path d="M0 0 C4 1 4 1 4 1 Z " fill="#0E0F0F" transform="translate(358,776)"/>
<path d="M0 0 C4 1 4 1 4 1 Z " fill="#0F100E" transform="translate(484,764)"/>
<path d="M0 0 C0.66 0.33 1.32 0.66 2 1 C1.01 1 0.02 1 -1 1 C-0.67 0.67 -0.34 0.34 0 0 Z " fill="#121211" transform="translate(409,732)"/>
<path d="M0 0 C4 1 4 1 4 1 Z " fill="#141414" transform="translate(487,686)"/>
<path d="M0 0 C4 1 4 1 4 1 Z " fill="#141314" transform="translate(504,637)"/>
<path d="M0 0 C4 1 4 1 4 1 Z " fill="#171617" transform="translate(578,605)"/>
<path d="M0 0 C0.66 0 1.32 0 2 0 C1.67 0.99 1.34 1.98 1 3 C0.67 2.01 0.34 1.02 0 0 Z " fill="#121111" transform="translate(305,586)"/>
<path d="M0 0 C4 1 4 1 4 1 Z " fill="#101010" transform="translate(452,515)"/>
<path d="M0 0 C1 4 1 4 1 4 Z " fill="#222121" transform="translate(138,484)"/>
<path d="M0 0 C0.99 0.33 1.98 0.66 3 1 C2.01 1.33 1.02 1.66 0 2 C0 1.34 0 0.68 0 0 Z " fill="#0E0F0F" transform="translate(480,438)"/>
<path d="M0 0 C1 4 1 4 1 4 Z " fill="#141313" transform="translate(297,437)"/>
<path d="M0 0 C1 4 1 4 1 4 Z " fill="#121010" transform="translate(784,395)"/>
<path d="M0 0 C1 4 1 4 1 4 Z " fill="#121111" transform="translate(785,386)"/>
<path d="M0 0 C0.66 0.33 1.32 0.66 2 1 C1.01 1 0.02 1 -1 1 C-0.67 0.67 -0.34 0.34 0 0 Z " fill="#1B1B1A" transform="translate(668,192)"/>
<path d="M0 0 C3 1 3 1 3 1 Z " fill="#1E1D1D" transform="translate(571,886)"/>
<path d="M0 0 C3 1 3 1 3 1 Z " fill="#1F1E1D" transform="translate(567,886)"/>
<path d="M0 0 C0.66 0.66 1.32 1.32 2 2 C1.34 2 0.68 2 0 2 C0 1.34 0 0.68 0 0 Z " fill="#11110F" transform="translate(584,824)"/>
<path d="M0 0 C3 1 3 1 3 1 Z " fill="#10100F" transform="translate(499,766)"/>
<path d="M0 0 C0.33 0.66 0.66 1.32 1 2 C0.34 1.67 -0.32 1.34 -1 1 C-0.67 0.67 -0.34 0.34 0 0 Z " fill="#111010" transform="translate(482,764)"/>
<path d="M0 0 C0.66 0 1.32 0 2 0 C1.67 0.66 1.34 1.32 1 2 C0.67 1.34 0.34 0.68 0 0 Z " fill="#111211" transform="translate(542,763)"/>
<path d="M0 0 C3 1 3 1 3 1 Z " fill="#121211" transform="translate(723,696)"/>
<path d="M0 0 C3 1 3 1 3 1 Z " fill="#131012" transform="translate(511,664)"/>
<path d="M0 0 C0.66 0 1.32 0 2 0 C1.67 0.66 1.34 1.32 1 2 C0.67 1.34 0.34 0.68 0 0 Z " fill="#141412" transform="translate(632,648)"/>
<path d="M0 0 C0.99 0.495 0.99 0.495 2 1 C1.01 1.495 1.01 1.495 0 2 C0 1.34 0 0.68 0 0 Z " fill="#0F100F" transform="translate(792,641)"/>
<path d="M0 0 C0.66 0 1.32 0 2 0 C1.67 0.66 1.34 1.32 1 2 C0.67 1.34 0.34 0.68 0 0 Z " fill="#141313" transform="translate(474,619)"/>
<path d="M0 0 C0.33 0.66 0.66 1.32 1 2 C0.34 1.67 -0.32 1.34 -1 1 C-0.67 0.67 -0.34 0.34 0 0 Z " fill="#111212" transform="translate(317,613)"/>
<path d="M0 0 C3 1 3 1 3 1 Z " fill="#161516" transform="translate(585,605)"/>
<path d="M0 0 C0.66 0 1.32 0 2 0 C1.67 0.66 1.34 1.32 1 2 C0.67 1.34 0.34 0.68 0 0 Z " fill="#171715" transform="translate(427,605)"/>
<path d="M0 0 C3 1 3 1 3 1 Z " fill="#171716" transform="translate(595,604)"/>
<path d="" fill="#111011" transform="translate(0,0)"/>
<path d="" fill="#1B1A1B" transform="translate(0,0)"/>
<path d="M0 0 C0.66 0 1.32 0 2 0 C1.67 0.66 1.34 1.32 1 2 C0.67 1.34 0.34 0.68 0 0 Z " fill="#111110" transform="translate(384,585)"/>
<path d="M0 0 C3 1 3 1 3 1 Z " fill="#101111" transform="translate(590,577)"/>
<path d="M0 0 C3 1 3 1 3 1 Z " fill="#121312" transform="translate(427,577)"/>
<path d="M0 0 C3 1 3 1 3 1 Z " fill="#141414" transform="translate(419,576)"/>
<path d="" fill="#121212" transform="translate(0,0)"/>
<path d="" fill="#121112" transform="translate(0,0)"/>
<path d="" fill="#0F0F0F" transform="translate(0,0)"/>
<path d="" fill="#111211" transform="translate(0,0)"/>
<path d="M0 0 C3 1 3 1 3 1 Z " fill="#131212" transform="translate(565,515)"/>
<path d="M0 0 C0.66 0 1.32 0 2 0 C1.67 0.66 1.34 1.32 1 2 C0.67 1.34 0.34 0.68 0 0 Z " fill="#232222" transform="translate(144,512)"/>
<path d="M0 0 C0.33 0.66 0.66 1.32 1 2 C0.34 1.67 -0.32 1.34 -1 1 C-0.67 0.67 -0.34 0.34 0 0 Z " fill="#111210" transform="translate(500,504)"/>
<path d="M0 0 C0.99 0.495 0.99 0.495 2 1 C1.01 1.495 1.01 1.495 0 2 C0 1.34 0 0.68 0 0 Z " fill="#131212" transform="translate(792,489)"/>
<path d="M0 0 C3 1 3 1 3 1 Z " fill="#141413" transform="translate(549,490)"/>
<path d="M0 0 C0.99 0.495 0.99 0.495 2 1 C1.01 1.495 1.01 1.495 0 2 C0 1.34 0 0.68 0 0 Z " fill="#111012" transform="translate(304,490)"/>
<path d="M0 0 C0.33 0.66 0.66 1.32 1 2 C0.34 1.67 -0.32 1.34 -1 1 C-0.67 0.67 -0.34 0.34 0 0 Z " fill="#131111" transform="translate(638,486)"/>
<path d="M0 0 C0.66 0 1.32 0 2 0 C1.67 0.66 1.34 1.32 1 2 C0.67 1.34 0.34 0.68 0 0 Z " fill="#151513" transform="translate(769,441)"/>
<path d="M0 0 C3 1 3 1 3 1 Z " fill="#0F0E0F" transform="translate(586,439)"/>
<path d="M0 0 C0.99 0.495 0.99 0.495 2 1 C1.01 1.495 1.01 1.495 0 2 C0 1.34 0 0.68 0 0 Z " fill="#100F10" transform="translate(579,438)"/>
<path d="M0 0 C3 1 3 1 3 1 Z " fill="#0F0F0E" transform="translate(576,435)"/>
<path d="" fill="#121112" transform="translate(0,0)"/>
<path d="M0 0 C0.99 0.495 0.99 0.495 2 1 C1.01 1.495 1.01 1.495 0 2 C0 1.34 0 0.68 0 0 Z " fill="#121212" transform="translate(307,392)"/>
<path d="M0 0 C0.99 0.495 0.99 0.495 2 1 C1.01 1.495 1.01 1.495 0 2 C0 1.34 0 0.68 0 0 Z " fill="#131211" transform="translate(768,317)"/>
<path d="M0 0 C0.66 0.66 1.32 1.32 2 2 C1.34 2 0.68 2 0 2 C0 1.34 0 0.68 0 0 Z " fill="#151513" transform="translate(753,294)"/>
<path d="M0 0 C3 1 3 1 3 1 Z " fill="#100F10" transform="translate(601,290)"/>
<path d="M0 0 C3 1 3 1 3 1 Z " fill="#101010" transform="translate(447,274)"/>
<path d="M0 0 C3 1 3 1 3 1 Z " fill="#1D1D1E" transform="translate(259,272)"/>
<path d="M0 0 C3 1 3 1 3 1 Z " fill="#212121" transform="translate(727,208)"/>
<path d="M0 0 C3 1 3 1 3 1 Z " fill="#1A1A19" transform="translate(656,192)"/>
<path d="M0 0 C0.99 0.495 0.99 0.495 2 1 C1.01 1.495 1.01 1.495 0 2 C0 1.34 0 0.68 0 0 Z " fill="#111111" transform="translate(491,190)"/>
<path d="M0 0 C3 1 3 1 3 1 Z " fill="#242424" transform="translate(482,129)"/>
<path d="M0 0 C2 1 2 1 2 1 Z " fill="#1F1F1D" transform="translate(523,887)"/>
<path d="M0 0 C2 1 2 1 2 1 Z " fill="#1D1C1C" transform="translate(563,886)"/>
<path d="M0 0 C2 1 2 1 2 1 Z " fill="#1E1D1C" transform="translate(517,884)"/>
<path d="" fill="#1F1D1F" transform="translate(0,0)"/>
<path d="M0 0 C2 1 2 1 2 1 Z " fill="#1C1B1A" transform="translate(465,867)"/>
<path d="M0 0 C2 1 2 1 2 1 Z " fill="#181816" transform="translate(433,846)"/>
<path d="M0 0 C2 1 2 1 2 1 Z " fill="#161716" transform="translate(393,831)"/>
<path d="M0 0 C2 1 2 1 2 1 Z " fill="#1E1D1D" transform="translate(331,830)"/>
<path d="M0 0 C2 1 2 1 2 1 Z " fill="#1D1E1E" transform="translate(323,830)"/>
<path d="M0 0 C2 1 2 1 2 1 Z " fill="#1A1D1B" transform="translate(322,828)"/>
<path d="M0 0 C2 1 2 1 2 1 Z " fill="#121210" transform="translate(522,827)"/>
<path d="M0 0 C2 1 2 1 2 1 Z " fill="#0F100E" transform="translate(509,824)"/>
<path d="M0 0 C2 1 2 1 2 1 Z " fill="#1F1F20" transform="translate(298,821)"/>
<path d="M0 0 C2 1 2 1 2 1 Z " fill="#111112" transform="translate(607,816)"/>
<path d="M0 0 C2 1 2 1 2 1 Z " fill="#202121" transform="translate(265,805)"/>
<path d="" fill="#252424" transform="translate(0,0)"/>
<path d="M0 0 C2 1 2 1 2 1 Z " fill="#232322" transform="translate(233,781)"/>
<path d="M0 0 C2 1 2 1 2 1 Z " fill="#121212" transform="translate(363,776)"/>
<path d="M0 0 C2 1 2 1 2 1 Z " fill="#121213" transform="translate(326,770)"/>
<path d="" fill="#111110" transform="translate(0,0)"/>
<path d="M0 0 C2 1 2 1 2 1 Z " fill="#0E100D" transform="translate(318,768)"/>
<path d="M0 0 C2 1 2 1 2 1 Z " fill="#0F0F0E" transform="translate(515,766)"/>
<path d="M0 0 C2 1 2 1 2 1 Z " fill="#11110F" transform="translate(491,765)"/>
<path d="M0 0 C2 1 2 1 2 1 Z " fill="#0F0F0E" transform="translate(300,760)"/>
<path d="M0 0 C2 1 2 1 2 1 Z " fill="#121311" transform="translate(569,755)"/>
<path d="M0 0 C2 1 2 1 2 1 Z " fill="#10100F" transform="translate(450,755)"/>
<path d="M0 0 C2 1 2 1 2 1 Z " fill="#1D1B1B" transform="translate(740,751)"/>
<path d="M0 0 C2 1 2 1 2 1 Z " fill="#1E201F" transform="translate(764,741)"/>
<path d="" fill="#101011" transform="translate(0,0)"/>
<path d="M0 0 C2 1 2 1 2 1 Z " fill="#110F10" transform="translate(473,730)"/>
<path d="M0 0 C2 1 2 1 2 1 Z " fill="#111111" transform="translate(467,728)"/>
<path d="" fill="#131212" transform="translate(0,0)"/>
<path d="M0 0 C2 1 2 1 2 1 Z " fill="#131212" transform="translate(691,704)"/>
<path d="M0 0 C2 1 2 1 2 1 Z " fill="#10110F" transform="translate(718,698)"/>
<path d="" fill="#121212" transform="translate(0,0)"/>
<path d="" fill="#212221" transform="translate(0,0)"/>
<path d="M0 0 C2 1 2 1 2 1 Z " fill="#161515" transform="translate(481,685)"/>
<path d="M0 0 C2 1 2 1 2 1 Z " fill="#111110" transform="translate(755,681)"/>
<path d="M0 0 C2 1 2 1 2 1 Z " fill="#131210" transform="translate(398,672)"/>
<path d="M0 0 C2 1 2 1 2 1 Z " fill="#121112" transform="translate(515,664)"/>
<path d="M0 0 C2 1 2 1 2 1 Z " fill="#131212" transform="translate(507,664)"/>
<path d="" fill="#161514" transform="translate(0,0)"/>
<path d="M0 0 C2 1 2 1 2 1 Z " fill="#171616" transform="translate(560,649)"/>
<path d="M0 0 C2 1 2 1 2 1 Z " fill="#151613" transform="translate(458,649)"/>
<path d="" fill="#101111" transform="translate(0,0)"/>
<path d="M0 0 C2 1 2 1 2 1 Z " fill="#121112" transform="translate(349,639)"/>
<path d="M0 0 C2 1 2 1 2 1 Z " fill="#151414" transform="translate(347,638)"/>
<path d="M0 0 C2 1 2 1 2 1 Z " fill="#0D0D0E" transform="translate(800,636)"/>
<path d="" fill="#1E1E1F" transform="translate(0,0)"/>
<path d="" fill="#141413" transform="translate(0,0)"/>
<path d="M0 0 C2 1 2 1 2 1 Z " fill="#131211" transform="translate(655,609)"/>
<path d="M0 0 C2 1 2 1 2 1 Z " fill="#101010" transform="translate(482,605)"/>
<path d="" fill="#161514" transform="translate(0,0)"/>
<path d="M0 0 C2 1 2 1 2 1 Z " fill="#161514" transform="translate(605,603)"/>
<path d="M0 0 C2 1 2 1 2 1 Z " fill="#151414" transform="translate(413,603)"/>
<path d="" fill="#151414" transform="translate(0,0)"/>
<path d="" fill="#151413" transform="translate(0,0)"/>
<path d="" fill="#0F0F0F" transform="translate(0,0)"/>
<path d="" fill="#111111" transform="translate(0,0)"/>
<path d="" fill="#111110" transform="translate(0,0)"/>
<path d="" fill="#161313" transform="translate(0,0)"/>
<path d="M0 0 C2 1 2 1 2 1 Z " fill="#141314" transform="translate(577,577)"/>
<path d="M0 0 C2 1 2 1 2 1 Z " fill="#121211" transform="translate(597,576)"/>
<path d="M0 0 C2 1 2 1 2 1 Z " fill="#111210" transform="translate(565,576)"/>
<path d="M0 0 C2 1 2 1 2 1 Z " fill="#110F10" transform="translate(448,576)"/>
<path d="" fill="#242324" transform="translate(0,0)"/>
<path d="" fill="#131313" transform="translate(0,0)"/>
<path d="" fill="#131211" transform="translate(0,0)"/>
<path d="" fill="#131212" transform="translate(0,0)"/>
<path d="" fill="#101010" transform="translate(0,0)"/>
<path d="" fill="#10100F" transform="translate(0,0)"/>
<path d="" fill="#171716" transform="translate(0,0)"/>
<path d="M0 0 C2 1 2 1 2 1 Z " fill="#0C0C0C" transform="translate(656,551)"/>
<path d="" fill="#101110" transform="translate(0,0)"/>
<path d="" fill="#1F201E" transform="translate(0,0)"/>
<path d="" fill="#121112" transform="translate(0,0)"/>
<path d="" fill="#101210" transform="translate(0,0)"/>
<path d="M0 0 C2 1 2 1 2 1 Z " fill="#11110F" transform="translate(816,539)"/>
<path d="" fill="#131312" transform="translate(0,0)"/>
<path d="M0 0 C2 1 2 1 2 1 Z " fill="#11100F" transform="translate(512,534)"/>
<path d="M0 0 C2 1 2 1 2 1 Z " fill="#131211" transform="translate(508,534)"/>
<path d="" fill="#202021" transform="translate(0,0)"/>
<path d="" fill="#111110" transform="translate(0,0)"/>
<path d="M0 0 C2 1 2 1 2 1 Z " fill="#111010" transform="translate(467,522)"/>
<path d="" fill="#141313" transform="translate(0,0)"/>
<path d="M0 0 C2 1 2 1 2 1 Z " fill="#131312" transform="translate(598,515)"/>
<path d="M0 0 C2 1 2 1 2 1 Z " fill="#121211" transform="translate(449,515)"/>
<path d="" fill="#141414" transform="translate(0,0)"/>
<path d="M0 0 C2 1 2 1 2 1 Z " fill="#131412" transform="translate(796,494)"/>
<path d="" fill="#151313" transform="translate(0,0)"/>
<path d="M0 0 C2 1 2 1 2 1 Z " fill="#101110" transform="translate(470,491)"/>
<path d="" fill="#101111" transform="translate(0,0)"/>
<path d="M0 0 C2 1 2 1 2 1 Z " fill="#131312" transform="translate(615,489)"/>
<path d="M0 0 C2 1 2 1 2 1 Z " fill="#141313" transform="translate(545,489)"/>
<path d="M0 0 C2 1 2 1 2 1 Z " fill="#131313" transform="translate(611,488)"/>
<path d="M0 0 C2 1 2 1 2 1 Z " fill="#121112" transform="translate(556,488)"/>
<path d="M0 0 C2 1 2 1 2 1 Z " fill="#0F0F0F" transform="translate(404,488)"/>
<path d="M0 0 C2 1 2 1 2 1 Z " fill="#111110" transform="translate(397,488)"/>
<path d="M0 0 C2 1 2 1 2 1 Z " fill="#111111" transform="translate(579,486)"/>
<path d="" fill="#111212" transform="translate(0,0)"/>
<path d="" fill="#1D1F1E" transform="translate(0,0)"/>
<path d="M0 0 C2 1 2 1 2 1 Z " fill="#100F10" transform="translate(632,482)"/>
<path d="" fill="#212322" transform="translate(0,0)"/>
<path d="" fill="#100F0F" transform="translate(0,0)"/>
<path d="" fill="#0D0E10" transform="translate(0,0)"/>
<path d="" fill="#10100F" transform="translate(0,0)"/>
<path d="M0 0 C2 1 2 1 2 1 Z " fill="#0F100F" transform="translate(506,444)"/>
<path d="" fill="#0E0F0E" transform="translate(0,0)"/>
<path d="M0 0 C2 1 2 1 2 1 Z " fill="#10100F" transform="translate(532,443)"/>
<path d="M0 0 C2 1 2 1 2 1 Z " fill="#100F0F" transform="translate(498,443)"/>
<path d="M0 0 C2 1 2 1 2 1 Z " fill="#0F100F" transform="translate(579,436)"/>
<path d="" fill="#111111" transform="translate(0,0)"/>
<path d="" fill="#0F100F" transform="translate(0,0)"/>
<path d="" fill="#0F1110" transform="translate(0,0)"/>
<path d="" fill="#111111" transform="translate(0,0)"/>
<path d="" fill="#121213" transform="translate(0,0)"/>
<path d="" fill="#111011" transform="translate(0,0)"/>
<path d="" fill="#252425" transform="translate(0,0)"/>
<path d="" fill="#11100F" transform="translate(0,0)"/>
<path d="" fill="#121211" transform="translate(0,0)"/>
<path d="" fill="#0F0D0D" transform="translate(0,0)"/>
<path d="M0 0 C2 1 2 1 2 1 Z " fill="#151415" transform="translate(316,318)"/>
<path d="" fill="#1E1D1E" transform="translate(0,0)"/>
<path d="M0 0 C2 1 2 1 2 1 Z " fill="#0E0E0F" transform="translate(578,290)"/>
<path d="M0 0 C2 1 2 1 2 1 Z " fill="#0F0F0F" transform="translate(583,289)"/>
<path d="M0 0 C2 1 2 1 2 1 Z " fill="#111212" transform="translate(415,288)"/>
<path d="M0 0 C2 1 2 1 2 1 Z " fill="#212120" transform="translate(240,280)"/>
<path d="M0 0 C2 1 2 1 2 1 Z " fill="#10110F" transform="translate(469,274)"/>
<path d="M0 0 C2 1 2 1 2 1 Z " fill="#0E0F0E" transform="translate(464,273)"/>
<path d="M0 0 C2 1 2 1 2 1 Z " fill="#1A1A19" transform="translate(281,266)"/>
<path d="" fill="#191918" transform="translate(0,0)"/>
<path d="M0 0 C2 1 2 1 2 1 Z " fill="#0D0E0B" transform="translate(534,264)"/>
<path d="M0 0 C2 1 2 1 2 1 Z " fill="#1B1B1A" transform="translate(280,264)"/>
<path d="" fill="#111212" transform="translate(0,0)"/>
<path d="M0 0 C2 1 2 1 2 1 Z " fill="#131312" transform="translate(704,260)"/>
<path d="M0 0 C2 1 2 1 2 1 Z " fill="#10100E" transform="translate(515,260)"/>
<path d="M0 0 C2 1 2 1 2 1 Z " fill="#111010" transform="translate(688,255)"/>
<path d="M0 0 C2 1 2 1 2 1 Z " fill="#131312" transform="translate(620,255)"/>
<path d="" fill="#222121" transform="translate(0,0)"/>
<path d="M0 0 C2 1 2 1 2 1 Z " fill="#101110" transform="translate(669,251)"/>
<path d="M0 0 C2 1 2 1 2 1 Z " fill="#111111" transform="translate(643,251)"/>
<path d="" fill="#20211F" transform="translate(0,0)"/>
<path d="" fill="#121111" transform="translate(0,0)"/>
<path d="M0 0 C2 1 2 1 2 1 Z " fill="#131313" transform="translate(618,197)"/>
<path d="M0 0 C2 1 2 1 2 1 Z " fill="#1A1C1A" transform="translate(641,193)"/>
<path d="" fill="#191A18" transform="translate(0,0)"/>
<path d="M0 0 C2 1 2 1 2 1 Z " fill="#151412" transform="translate(499,190)"/>
<path d="M0 0 C2 1 2 1 2 1 Z " fill="#212120" transform="translate(369,160)"/>
<path d="M0 0 C2 1 2 1 2 1 Z " fill="#242425" transform="translate(418,137)"/>
<path d="M0 0 C2 1 2 1 2 1 Z " fill="#242423" transform="translate(421,136)"/>
<path d="" fill="#1F1F1D" transform="translate(0,0)"/>
<path d="" fill="#201F1F" transform="translate(0,0)"/>
<path d="" fill="#1F1F1E" transform="translate(0,0)"/>
<path d="" fill="#211D1D" transform="translate(0,0)"/>
<path d="" fill="#1E1D1B" transform="translate(0,0)"/>
<path d="" fill="#201E1F" transform="translate(0,0)"/>
<path d="" fill="#1E1C1A" transform="translate(0,0)"/>
<path d="" fill="#1D1D1D" transform="translate(0,0)"/>
<path d="" fill="#1E1D1E" transform="translate(0,0)"/>
<path d="" fill="#252222" transform="translate(0,0)"/>
<path d="" fill="#1D1E1E" transform="translate(0,0)"/>
<path d="" fill="#242221" transform="translate(0,0)"/>
<path d="" fill="#171718" transform="translate(0,0)"/>
<path d="" fill="#1A1B1B" transform="translate(0,0)"/>
<path d="" fill="#181919" transform="translate(0,0)"/>
<path d="" fill="#252626" transform="translate(0,0)"/>
<path d="" fill="#1D1B1C" transform="translate(0,0)"/>
<path d="" fill="#1C1B1B" transform="translate(0,0)"/>
<path d="" fill="#202120" transform="translate(0,0)"/>
<path d="" fill="#1E1D1F" transform="translate(0,0)"/>
<path d="" fill="#272727" transform="translate(0,0)"/>
<path d="" fill="#191A18" transform="translate(0,0)"/>
<path d="" fill="#1A1B1B" transform="translate(0,0)"/>
<path d="" fill="#242625" transform="translate(0,0)"/>
<path d="" fill="#191A1A" transform="translate(0,0)"/>
<path d="" fill="#171618" transform="translate(0,0)"/>
<path d="" fill="#171717" transform="translate(0,0)"/>
<path d="" fill="#191817" transform="translate(0,0)"/>
<path d="" fill="#1A1718" transform="translate(0,0)"/>
<path d="" fill="#191816" transform="translate(0,0)"/>
<path d="" fill="#20201E" transform="translate(0,0)"/>
<path d="" fill="#151413" transform="translate(0,0)"/>
<path d="" fill="#181815" transform="translate(0,0)"/>
<path d="" fill="#0E0F0D" transform="translate(0,0)"/>
<path d="" fill="#121111" transform="translate(0,0)"/>
<path d="" fill="#10120F" transform="translate(0,0)"/>
<path d="" fill="#0F120F" transform="translate(0,0)"/>
<path d="" fill="#101010" transform="translate(0,0)"/>
<path d="" fill="#101211" transform="translate(0,0)"/>
<path d="" fill="#111011" transform="translate(0,0)"/>
<path d="" fill="#12100F" transform="translate(0,0)"/>
<path d="" fill="#242323" transform="translate(0,0)"/>
<path d="" fill="#151311" transform="translate(0,0)"/>
<path d="" fill="#0E0E0D" transform="translate(0,0)"/>
<path d="" fill="#11120E" transform="translate(0,0)"/>
<path d="" fill="#10100F" transform="translate(0,0)"/>
<path d="" fill="#0E0F0E" transform="translate(0,0)"/>
<path d="" fill="#0F1010" transform="translate(0,0)"/>
<path d="" fill="#1D1D1D" transform="translate(0,0)"/>
<path d="" fill="#222220" transform="translate(0,0)"/>
<path d="" fill="#131111" transform="translate(0,0)"/>
<path d="" fill="#101110" transform="translate(0,0)"/>
<path d="" fill="#121113" transform="translate(0,0)"/>
<path d="" fill="#101011" transform="translate(0,0)"/>
<path d="" fill="#100F10" transform="translate(0,0)"/>
<path d="" fill="#191916" transform="translate(0,0)"/>
<path d="" fill="#131111" transform="translate(0,0)"/>
<path d="" fill="#1D1E1D" transform="translate(0,0)"/>
<path d="" fill="#272728" transform="translate(0,0)"/>
<path d="" fill="#12110F" transform="translate(0,0)"/>
<path d="" fill="#10120F" transform="translate(0,0)"/>
<path d="" fill="#202020" transform="translate(0,0)"/>
<path d="" fill="#131616" transform="translate(0,0)"/>
<path d="" fill="#100F0F" transform="translate(0,0)"/>
<path d="" fill="#252322" transform="translate(0,0)"/>
<path d="" fill="#110F0F" transform="translate(0,0)"/>
<path d="" fill="#0F0F0F" transform="translate(0,0)"/>
<path d="" fill="#0F1110" transform="translate(0,0)"/>
<path d="" fill="#0D0E09" transform="translate(0,0)"/>
<path d="" fill="#10100F" transform="translate(0,0)"/>
<path d="" fill="#121313" transform="translate(0,0)"/>
<path d="" fill="#131311" transform="translate(0,0)"/>
<path d="" fill="#110F11" transform="translate(0,0)"/>
<path d="" fill="#121011" transform="translate(0,0)"/>
<path d="" fill="#13120F" transform="translate(0,0)"/>
<path d="" fill="#121311" transform="translate(0,0)"/>
<path d="" fill="#141515" transform="translate(0,0)"/>
<path d="" fill="#101111" transform="translate(0,0)"/>
<path d="" fill="#0F1010" transform="translate(0,0)"/>
<path d="" fill="#120F10" transform="translate(0,0)"/>
<path d="" fill="#111010" transform="translate(0,0)"/>
<path d="" fill="#232323" transform="translate(0,0)"/>
<path d="" fill="#131211" transform="translate(0,0)"/>
<path d="" fill="#121010" transform="translate(0,0)"/>
<path d="" fill="#131412" transform="translate(0,0)"/>
<path d="" fill="#0F0C0D" transform="translate(0,0)"/>
<path d="" fill="#121211" transform="translate(0,0)"/>
<path d="" fill="#141411" transform="translate(0,0)"/>
<path d="" fill="#0F0F0F" transform="translate(0,0)"/>
<path d="" fill="#0B0E0B" transform="translate(0,0)"/>
<path d="" fill="#232324" transform="translate(0,0)"/>
<path d="" fill="#111210" transform="translate(0,0)"/>
<path d="" fill="#121412" transform="translate(0,0)"/>
<path d="" fill="#222121" transform="translate(0,0)"/>
<path d="" fill="#100F0D" transform="translate(0,0)"/>
<path d="" fill="#0C0C0C" transform="translate(0,0)"/>
<path d="" fill="#222322" transform="translate(0,0)"/>
<path d="" fill="#100E0F" transform="translate(0,0)"/>
<path d="" fill="#212220" transform="translate(0,0)"/>
<path d="" fill="#141414" transform="translate(0,0)"/>
<path d="" fill="#111111" transform="translate(0,0)"/>
<path d="" fill="#131211" transform="translate(0,0)"/>
<path d="" fill="#131414" transform="translate(0,0)"/>
<path d="" fill="#252825" transform="translate(0,0)"/>
<path d="" fill="#121210" transform="translate(0,0)"/>
<path d="" fill="#222422" transform="translate(0,0)"/>
<path d="" fill="#21201E" transform="translate(0,0)"/>
<path d="" fill="#202221" transform="translate(0,0)"/>
<path d="" fill="#10100F" transform="translate(0,0)"/>
<path d="" fill="#100F10" transform="translate(0,0)"/>
<path d="" fill="#222223" transform="translate(0,0)"/>
<path d="" fill="#1F1F1E" transform="translate(0,0)"/>
<path d="" fill="#141415" transform="translate(0,0)"/>
<path d="" fill="#222221" transform="translate(0,0)"/>
<path d="" fill="#20201E" transform="translate(0,0)"/>
<path d="" fill="#131212" transform="translate(0,0)"/>
<path d="" fill="#111010" transform="translate(0,0)"/>
<path d="" fill="#262425" transform="translate(0,0)"/>
<path d="" fill="#202121" transform="translate(0,0)"/>
<path d="" fill="#121313" transform="translate(0,0)"/>
<path d="" fill="#121011" transform="translate(0,0)"/>
<path d="" fill="#211F22" transform="translate(0,0)"/>
<path d="" fill="#111310" transform="translate(0,0)"/>
<path d="" fill="#131113" transform="translate(0,0)"/>
<path d="" fill="#121010" transform="translate(0,0)"/>
<path d="" fill="#141412" transform="translate(0,0)"/>
<path d="" fill="#101111" transform="translate(0,0)"/>
<path d="" fill="#101011" transform="translate(0,0)"/>
<path d="" fill="#121212" transform="translate(0,0)"/>
<path d="" fill="#121211" transform="translate(0,0)"/>
<path d="" fill="#131212" transform="translate(0,0)"/>
<path d="" fill="#12100F" transform="translate(0,0)"/>
<path d="" fill="#212221" transform="translate(0,0)"/>
<path d="" fill="#131413" transform="translate(0,0)"/>
<path d="" fill="#141313" transform="translate(0,0)"/>
<path d="" fill="#201D1E" transform="translate(0,0)"/>
<path d="" fill="#181516" transform="translate(0,0)"/>
<path d="" fill="#202220" transform="translate(0,0)"/>
<path d="" fill="#0B0B09" transform="translate(0,0)"/>
<path d="" fill="#111310" transform="translate(0,0)"/>
<path d="" fill="#242425" transform="translate(0,0)"/>
<path d="" fill="#131312" transform="translate(0,0)"/>
<path d="" fill="#131112" transform="translate(0,0)"/>
<path d="" fill="#121210" transform="translate(0,0)"/>
<path d="" fill="#1A1817" transform="translate(0,0)"/>
<path d="" fill="#111010" transform="translate(0,0)"/>
<path d="" fill="#121313" transform="translate(0,0)"/>
<path d="" fill="#121213" transform="translate(0,0)"/>
<path d="" fill="#131414" transform="translate(0,0)"/>
<path d="" fill="#101010" transform="translate(0,0)"/>
<path d="" fill="#111010" transform="translate(0,0)"/>
<path d="" fill="#131311" transform="translate(0,0)"/>
<path d="" fill="#0F110E" transform="translate(0,0)"/>
<path d="" fill="#151415" transform="translate(0,0)"/>
<path d="" fill="#111211" transform="translate(0,0)"/>
<path d="" fill="#121212" transform="translate(0,0)"/>
<path d="" fill="#121011" transform="translate(0,0)"/>
<path d="" fill="#161515" transform="translate(0,0)"/>
<path d="" fill="#111010" transform="translate(0,0)"/>
<path d="" fill="#131411" transform="translate(0,0)"/>
<path d="" fill="#141212" transform="translate(0,0)"/>
<path d="" fill="#10120F" transform="translate(0,0)"/>
<path d="" fill="#141213" transform="translate(0,0)"/>
<path d="" fill="#121212" transform="translate(0,0)"/>
<path d="" fill="#141211" transform="translate(0,0)"/>
<path d="" fill="#1B1D1A" transform="translate(0,0)"/>
<path d="" fill="#161716" transform="translate(0,0)"/>
<path d="" fill="#222424" transform="translate(0,0)"/>
<path d="" fill="#1F1E1E" transform="translate(0,0)"/>
<path d="" fill="#262625" transform="translate(0,0)"/>
<path d="" fill="#141314" transform="translate(0,0)"/>
<path d="" fill="#131211" transform="translate(0,0)"/>
<path d="" fill="#101112" transform="translate(0,0)"/>
<path d="" fill="#121211" transform="translate(0,0)"/>
<path d="" fill="#1F221D" transform="translate(0,0)"/>
<path d="" fill="#161615" transform="translate(0,0)"/>
<path d="" fill="#151213" transform="translate(0,0)"/>
<path d="" fill="#151415" transform="translate(0,0)"/>
<path d="" fill="#100E0D" transform="translate(0,0)"/>
<path d="" fill="#161515" transform="translate(0,0)"/>
<path d="" fill="#141114" transform="translate(0,0)"/>
<path d="" fill="#121110" transform="translate(0,0)"/>
<path d="" fill="#111011" transform="translate(0,0)"/>
<path d="" fill="#121210" transform="translate(0,0)"/>
<path d="" fill="#0F1211" transform="translate(0,0)"/>
<path d="" fill="#141514" transform="translate(0,0)"/>
<path d="" fill="#121112" transform="translate(0,0)"/>
<path d="" fill="#141513" transform="translate(0,0)"/>
<path d="" fill="#151413" transform="translate(0,0)"/>
<path d="" fill="#111011" transform="translate(0,0)"/>
<path d="" fill="#101012" transform="translate(0,0)"/>
<path d="" fill="#101110" transform="translate(0,0)"/>
<path d="" fill="#0D100B" transform="translate(0,0)"/>
<path d="" fill="#151514" transform="translate(0,0)"/>
<path d="" fill="#141312" transform="translate(0,0)"/>
<path d="" fill="#121013" transform="translate(0,0)"/>
<path d="" fill="#11110F" transform="translate(0,0)"/>
<path d="" fill="#13130F" transform="translate(0,0)"/>
<path d="" fill="#151412" transform="translate(0,0)"/>
<path d="" fill="#21221F" transform="translate(0,0)"/>
<path d="" fill="#151616" transform="translate(0,0)"/>
<path d="" fill="#121313" transform="translate(0,0)"/>
<path d="" fill="#282728" transform="translate(0,0)"/>
<path d="" fill="#0F1211" transform="translate(0,0)"/>
<path d="" fill="#151412" transform="translate(0,0)"/>
<path d="" fill="#161514" transform="translate(0,0)"/>
<path d="" fill="#131513" transform="translate(0,0)"/>
<path d="" fill="#121212" transform="translate(0,0)"/>
<path d="" fill="#10110F" transform="translate(0,0)"/>
<path d="" fill="#141515" transform="translate(0,0)"/>
<path d="" fill="#121212" transform="translate(0,0)"/>
<path d="" fill="#11110F" transform="translate(0,0)"/>
<path d="" fill="#151612" transform="translate(0,0)"/>
<path d="" fill="#141313" transform="translate(0,0)"/>
<path d="" fill="#141212" transform="translate(0,0)"/>
<path d="" fill="#181516" transform="translate(0,0)"/>
<path d="" fill="#111011" transform="translate(0,0)"/>
<path d="" fill="#201F1F" transform="translate(0,0)"/>
<path d="" fill="#101010" transform="translate(0,0)"/>
<path d="" fill="#0F100E" transform="translate(0,0)"/>
<path d="" fill="#161515" transform="translate(0,0)"/>
<path d="" fill="#161717" transform="translate(0,0)"/>
<path d="" fill="#161516" transform="translate(0,0)"/>
<path d="" fill="#0E0F0E" transform="translate(0,0)"/>
<path d="" fill="#191716" transform="translate(0,0)"/>
<path d="" fill="#121313" transform="translate(0,0)"/>
<path d="" fill="#161616" transform="translate(0,0)"/>
<path d="" fill="#161614" transform="translate(0,0)"/>
<path d="" fill="#151514" transform="translate(0,0)"/>
<path d="" fill="#171817" transform="translate(0,0)"/>
<path d="" fill="#131212" transform="translate(0,0)"/>
<path d="" fill="#111212" transform="translate(0,0)"/>
<path d="" fill="#151414" transform="translate(0,0)"/>
<path d="" fill="#171516" transform="translate(0,0)"/>
<path d="" fill="#141414" transform="translate(0,0)"/>
<path d="" fill="#141414" transform="translate(0,0)"/>
<path d="" fill="#101010" transform="translate(0,0)"/>
<path d="" fill="#141415" transform="translate(0,0)"/>
<path d="" fill="#151513" transform="translate(0,0)"/>
<path d="" fill="#141212" transform="translate(0,0)"/>
<path d="" fill="#131515" transform="translate(0,0)"/>
<path d="" fill="#1C1E1D" transform="translate(0,0)"/>
<path d="" fill="#262826" transform="translate(0,0)"/>
<path d="" fill="#131313" transform="translate(0,0)"/>
<path d="" fill="#11130F" transform="translate(0,0)"/>
<path d="" fill="#191816" transform="translate(0,0)"/>
<path d="" fill="#0F1010" transform="translate(0,0)"/>
<path d="" fill="#141315" transform="translate(0,0)"/>
<path d="" fill="#181616" transform="translate(0,0)"/>
<path d="" fill="#242223" transform="translate(0,0)"/>
<path d="" fill="#100F0F" transform="translate(0,0)"/>
<path d="" fill="#13100E" transform="translate(0,0)"/>
<path d="" fill="#151312" transform="translate(0,0)"/>
<path d="" fill="#131314" transform="translate(0,0)"/>
<path d="" fill="#101212" transform="translate(0,0)"/>
<path d="" fill="#161313" transform="translate(0,0)"/>
<path d="" fill="#121212" transform="translate(0,0)"/>
<path d="" fill="#141414" transform="translate(0,0)"/>
<path d="" fill="#131414" transform="translate(0,0)"/>
<path d="" fill="#111110" transform="translate(0,0)"/>
<path d="" fill="#131211" transform="translate(0,0)"/>
<path d="" fill="#131111" transform="translate(0,0)"/>
<path d="" fill="#111211" transform="translate(0,0)"/>
<path d="" fill="#121315" transform="translate(0,0)"/>
<path d="" fill="#10100F" transform="translate(0,0)"/>
<path d="" fill="#141415" transform="translate(0,0)"/>
<path d="" fill="#121011" transform="translate(0,0)"/>
<path d="" fill="#111011" transform="translate(0,0)"/>
<path d="" fill="#11120E" transform="translate(0,0)"/>
<path d="" fill="#141213" transform="translate(0,0)"/>
<path d="" fill="#141413" transform="translate(0,0)"/>
<path d="" fill="#111312" transform="translate(0,0)"/>
<path d="" fill="#131110" transform="translate(0,0)"/>
<path d="" fill="#141313" transform="translate(0,0)"/>
<path d="" fill="#161615" transform="translate(0,0)"/>
<path d="" fill="#0E0E0C" transform="translate(0,0)"/>
<path d="" fill="#161715" transform="translate(0,0)"/>
<path d="" fill="#161615" transform="translate(0,0)"/>
<path d="" fill="#161714" transform="translate(0,0)"/>
<path d="" fill="#131213" transform="translate(0,0)"/>
<path d="" fill="#151515" transform="translate(0,0)"/>
<path d="" fill="#181514" transform="translate(0,0)"/>
<path d="" fill="#161616" transform="translate(0,0)"/>
<path d="" fill="#151414" transform="translate(0,0)"/>
<path d="" fill="#151414" transform="translate(0,0)"/>
<path d="" fill="#181917" transform="translate(0,0)"/>
<path d="" fill="#151615" transform="translate(0,0)"/>
<path d="" fill="#171516" transform="translate(0,0)"/>
<path d="" fill="#151511" transform="translate(0,0)"/>
<path d="" fill="#121111" transform="translate(0,0)"/>
<path d="" fill="#111310" transform="translate(0,0)"/>
<path d="" fill="#12110F" transform="translate(0,0)"/>
<path d="" fill="#141511" transform="translate(0,0)"/>
<path d="" fill="#151312" transform="translate(0,0)"/>
<path d="" fill="#111313" transform="translate(0,0)"/>
<path d="" fill="#151515" transform="translate(0,0)"/>
<path d="" fill="#131412" transform="translate(0,0)"/>
<path d="" fill="#121413" transform="translate(0,0)"/>
<path d="" fill="#161517" transform="translate(0,0)"/>
<path d="" fill="#121110" transform="translate(0,0)"/>
<path d="" fill="#111412" transform="translate(0,0)"/>
<path d="" fill="#131213" transform="translate(0,0)"/>
<path d="" fill="#1C1A1A" transform="translate(0,0)"/>
<path d="" fill="#131311" transform="translate(0,0)"/>
<path d="" fill="#131311" transform="translate(0,0)"/>
<path d="" fill="#11120F" transform="translate(0,0)"/>
<path d="" fill="#0F0F0F" transform="translate(0,0)"/>
<path d="" fill="#0D0D0D" transform="translate(0,0)"/>
<path d="" fill="#141313" transform="translate(0,0)"/>
<path d="" fill="#252424" transform="translate(0,0)"/>
<path d="" fill="#121212" transform="translate(0,0)"/>
<path d="" fill="#12100E" transform="translate(0,0)"/>
<path d="" fill="#131112" transform="translate(0,0)"/>
<path d="" fill="#10100F" transform="translate(0,0)"/>
<path d="" fill="#131310" transform="translate(0,0)"/>
<path d="" fill="#141413" transform="translate(0,0)"/>
<path d="" fill="#141413" transform="translate(0,0)"/>
<path d="" fill="#0F0E0F" transform="translate(0,0)"/>
<path d="" fill="#0D0F0C" transform="translate(0,0)"/>
<path d="" fill="#141113" transform="translate(0,0)"/>
<path d="" fill="#111010" transform="translate(0,0)"/>
<path d="" fill="#110E0E" transform="translate(0,0)"/>
<path d="" fill="#161414" transform="translate(0,0)"/>
<path d="" fill="#141112" transform="translate(0,0)"/>
<path d="" fill="#111212" transform="translate(0,0)"/>
<path d="" fill="#110F0F" transform="translate(0,0)"/>
<path d="" fill="#141410" transform="translate(0,0)"/>
<path d="" fill="#131315" transform="translate(0,0)"/>
<path d="" fill="#11110F" transform="translate(0,0)"/>
<path d="" fill="#181817" transform="translate(0,0)"/>
<path d="" fill="#171817" transform="translate(0,0)"/>
<path d="" fill="#141110" transform="translate(0,0)"/>
<path d="" fill="#0F100F" transform="translate(0,0)"/>
<path d="" fill="#121312" transform="translate(0,0)"/>
<path d="" fill="#111010" transform="translate(0,0)"/>
<path d="" fill="#11110E" transform="translate(0,0)"/>
<path d="" fill="#141313" transform="translate(0,0)"/>
<path d="" fill="#121011" transform="translate(0,0)"/>
<path d="" fill="#0C0D0D" transform="translate(0,0)"/>
<path d="" fill="#141312" transform="translate(0,0)"/>
<path d="" fill="#141312" transform="translate(0,0)"/>
<path d="" fill="#111112" transform="translate(0,0)"/>
<path d="" fill="#121212" transform="translate(0,0)"/>
<path d="" fill="#101110" transform="translate(0,0)"/>
<path d="" fill="#0E0E0C" transform="translate(0,0)"/>
<path d="" fill="#141213" transform="translate(0,0)"/>
<path d="" fill="#222122" transform="translate(0,0)"/>
<path d="" fill="#141511" transform="translate(0,0)"/>
<path d="" fill="#0E0E0D" transform="translate(0,0)"/>
<path d="" fill="#111114" transform="translate(0,0)"/>
<path d="" fill="#121211" transform="translate(0,0)"/>
<path d="" fill="#121411" transform="translate(0,0)"/>
<path d="" fill="#0F110F" transform="translate(0,0)"/>
<path d="" fill="#111012" transform="translate(0,0)"/>
<path d="" fill="#21221F" transform="translate(0,0)"/>
<path d="" fill="#1F2120" transform="translate(0,0)"/>
<path d="" fill="#111010" transform="translate(0,0)"/>
<path d="" fill="#0F0D0E" transform="translate(0,0)"/>
<path d="" fill="#120F11" transform="translate(0,0)"/>
<path d="" fill="#11100F" transform="translate(0,0)"/>
<path d="" fill="#21221E" transform="translate(0,0)"/>
<path d="" fill="#111313" transform="translate(0,0)"/>
<path d="" fill="#121013" transform="translate(0,0)"/>
<path d="" fill="#111111" transform="translate(0,0)"/>
<path d="" fill="#121110" transform="translate(0,0)"/>
<path d="" fill="#13120F" transform="translate(0,0)"/>
<path d="" fill="#131111" transform="translate(0,0)"/>
<path d="" fill="#121212" transform="translate(0,0)"/>
<path d="" fill="#111211" transform="translate(0,0)"/>
<path d="" fill="#131213" transform="translate(0,0)"/>
<path d="" fill="#121110" transform="translate(0,0)"/>
<path d="" fill="#141415" transform="translate(0,0)"/>
<path d="" fill="#101212" transform="translate(0,0)"/>
<path d="" fill="#101011" transform="translate(0,0)"/>
<path d="" fill="#12100F" transform="translate(0,0)"/>
<path d="" fill="#131012" transform="translate(0,0)"/>
<path d="" fill="#10100D" transform="translate(0,0)"/>
<path d="" fill="#100E0F" transform="translate(0,0)"/>
<path d="" fill="#13110F" transform="translate(0,0)"/>
<path d="" fill="#222022" transform="translate(0,0)"/>
<path d="" fill="#111010" transform="translate(0,0)"/>
<path d="" fill="#101110" transform="translate(0,0)"/>
<path d="" fill="#141414" transform="translate(0,0)"/>
<path d="" fill="#212321" transform="translate(0,0)"/>
<path d="" fill="#100F0F" transform="translate(0,0)"/>
<path d="" fill="#131412" transform="translate(0,0)"/>
<path d="" fill="#0F1010" transform="translate(0,0)"/>
<path d="" fill="#0F0F10" transform="translate(0,0)"/>
<path d="" fill="#101010" transform="translate(0,0)"/>
<path d="" fill="#212222" transform="translate(0,0)"/>
<path d="" fill="#232421" transform="translate(0,0)"/>
<path d="" fill="#121110" transform="translate(0,0)"/>
<path d="" fill="#121110" transform="translate(0,0)"/>
<path d="" fill="#131210" transform="translate(0,0)"/>
<path d="" fill="#0B0C0B" transform="translate(0,0)"/>
<path d="" fill="#111010" transform="translate(0,0)"/>
<path d="" fill="#0F0E0E" transform="translate(0,0)"/>
<path d="" fill="#212221" transform="translate(0,0)"/>
<path d="" fill="#101113" transform="translate(0,0)"/>
<path d="" fill="#111312" transform="translate(0,0)"/>
<path d="" fill="#101011" transform="translate(0,0)"/>
<path d="" fill="#111112" transform="translate(0,0)"/>
<path d="" fill="#10100F" transform="translate(0,0)"/>
<path d="" fill="#111110" transform="translate(0,0)"/>
<path d="" fill="#0F100F" transform="translate(0,0)"/>
<path d="" fill="#101010" transform="translate(0,0)"/>
<path d="" fill="#111213" transform="translate(0,0)"/>
<path d="" fill="#121412" transform="translate(0,0)"/>
<path d="" fill="#1E1E1C" transform="translate(0,0)"/>
<path d="" fill="#111211" transform="translate(0,0)"/>
<path d="" fill="#141412" transform="translate(0,0)"/>
<path d="" fill="#101011" transform="translate(0,0)"/>
<path d="" fill="#121212" transform="translate(0,0)"/>
<path d="" fill="#222323" transform="translate(0,0)"/>
<path d="" fill="#111212" transform="translate(0,0)"/>
<path d="" fill="#131313" transform="translate(0,0)"/>
<path d="" fill="#131312" transform="translate(0,0)"/>
<path d="" fill="#141412" transform="translate(0,0)"/>
<path d="" fill="#141312" transform="translate(0,0)"/>
<path d="" fill="#141412" transform="translate(0,0)"/>
<path d="" fill="#111211" transform="translate(0,0)"/>
<path d="" fill="#121413" transform="translate(0,0)"/>
<path d="" fill="#23211F" transform="translate(0,0)"/>
<path d="" fill="#121212" transform="translate(0,0)"/>
<path d="" fill="#111111" transform="translate(0,0)"/>
<path d="" fill="#0E0F0D" transform="translate(0,0)"/>
<path d="" fill="#0F0E0E" transform="translate(0,0)"/>
<path d="" fill="#141213" transform="translate(0,0)"/>
<path d="" fill="#111011" transform="translate(0,0)"/>
<path d="" fill="#0F0F0F" transform="translate(0,0)"/>
<path d="" fill="#0F0F0F" transform="translate(0,0)"/>
<path d="" fill="#101210" transform="translate(0,0)"/>
<path d="" fill="#121111" transform="translate(0,0)"/>
<path d="" fill="#100F0F" transform="translate(0,0)"/>
<path d="" fill="#121411" transform="translate(0,0)"/>
<path d="" fill="#222122" transform="translate(0,0)"/>
<path d="" fill="#121213" transform="translate(0,0)"/>
<path d="" fill="#121013" transform="translate(0,0)"/>
<path d="" fill="#121311" transform="translate(0,0)"/>
<path d="" fill="#0F0F0F" transform="translate(0,0)"/>
<path d="" fill="#121311" transform="translate(0,0)"/>
<path d="" fill="#12110F" transform="translate(0,0)"/>
<path d="" fill="#1D1F1F" transform="translate(0,0)"/>
<path d="" fill="#131213" transform="translate(0,0)"/>
<path d="" fill="#131211" transform="translate(0,0)"/>
<path d="" fill="#141412" transform="translate(0,0)"/>
<path d="" fill="#252324" transform="translate(0,0)"/>
<path d="" fill="#131011" transform="translate(0,0)"/>
<path d="" fill="#141414" transform="translate(0,0)"/>
<path d="" fill="#100F0E" transform="translate(0,0)"/>
<path d="" fill="#151313" transform="translate(0,0)"/>
<path d="" fill="#121010" transform="translate(0,0)"/>
<path d="" fill="#10120F" transform="translate(0,0)"/>
<path d="" fill="#121111" transform="translate(0,0)"/>
<path d="" fill="#121313" transform="translate(0,0)"/>
<path d="" fill="#121110" transform="translate(0,0)"/>
<path d="" fill="#212021" transform="translate(0,0)"/>
<path d="" fill="#121112" transform="translate(0,0)"/>
<path d="" fill="#131413" transform="translate(0,0)"/>
<path d="" fill="#131513" transform="translate(0,0)"/>
<path d="" fill="#111211" transform="translate(0,0)"/>
<path d="" fill="#111011" transform="translate(0,0)"/>
<path d="" fill="#101211" transform="translate(0,0)"/>
<path d="" fill="#111112" transform="translate(0,0)"/>
<path d="" fill="#100F0D" transform="translate(0,0)"/>
<path d="" fill="#121114" transform="translate(0,0)"/>
<path d="" fill="#111212" transform="translate(0,0)"/>
<path d="" fill="#141312" transform="translate(0,0)"/>
<path d="" fill="#151414" transform="translate(0,0)"/>
<path d="" fill="#1D1F1F" transform="translate(0,0)"/>
<path d="" fill="#0F100E" transform="translate(0,0)"/>
<path d="" fill="#12120E" transform="translate(0,0)"/>
<path d="" fill="#121312" transform="translate(0,0)"/>
<path d="" fill="#121210" transform="translate(0,0)"/>
<path d="" fill="#100E0E" transform="translate(0,0)"/>
<path d="" fill="#1A1917" transform="translate(0,0)"/>
<path d="" fill="#151614" transform="translate(0,0)"/>
<path d="" fill="#12100D" transform="translate(0,0)"/>
<path d="" fill="#111110" transform="translate(0,0)"/>
<path d="" fill="#111211" transform="translate(0,0)"/>
<path d="" fill="#141517" transform="translate(0,0)"/>
<path d="" fill="#121111" transform="translate(0,0)"/>
<path d="" fill="#121211" transform="translate(0,0)"/>
<path d="" fill="#161615" transform="translate(0,0)"/>
<path d="" fill="#121110" transform="translate(0,0)"/>
<path d="" fill="#111211" transform="translate(0,0)"/>
<path d="" fill="#131513" transform="translate(0,0)"/>
<path d="" fill="#131112" transform="translate(0,0)"/>
<path d="" fill="#121211" transform="translate(0,0)"/>
<path d="" fill="#151514" transform="translate(0,0)"/>
<path d="" fill="#101211" transform="translate(0,0)"/>
<path d="" fill="#0F100E" transform="translate(0,0)"/>
<path d="" fill="#0E0D0F" transform="translate(0,0)"/>
<path d="" fill="#0D0E0D" transform="translate(0,0)"/>
<path d="" fill="#10100F" transform="translate(0,0)"/>
<path d="" fill="#0E100F" transform="translate(0,0)"/>
<path d="" fill="#0C0B09" transform="translate(0,0)"/>
<path d="" fill="#181619" transform="translate(0,0)"/>
<path d="" fill="#111010" transform="translate(0,0)"/>
<path d="" fill="#0E0F0F" transform="translate(0,0)"/>
<path d="" fill="#131111" transform="translate(0,0)"/>
<path d="" fill="#111110" transform="translate(0,0)"/>
<path d="" fill="#181917" transform="translate(0,0)"/>
<path d="" fill="#131413" transform="translate(0,0)"/>
<path d="" fill="#121311" transform="translate(0,0)"/>
<path d="" fill="#0D0B0B" transform="translate(0,0)"/>
<path d="" fill="#0F0F0E" transform="translate(0,0)"/>
<path d="" fill="#161614" transform="translate(0,0)"/>
<path d="" fill="#100F0D" transform="translate(0,0)"/>
<path d="" fill="#0D0C0C" transform="translate(0,0)"/>
<path d="" fill="#111011" transform="translate(0,0)"/>
<path d="" fill="#0E0F0E" transform="translate(0,0)"/>
<path d="" fill="#11110F" transform="translate(0,0)"/>
<path d="" fill="#0F1110" transform="translate(0,0)"/>
<path d="" fill="#181919" transform="translate(0,0)"/>
<path d="" fill="#121312" transform="translate(0,0)"/>
<path d="" fill="#0F0E0E" transform="translate(0,0)"/>
<path d="" fill="#0F110F" transform="translate(0,0)"/>
<path d="" fill="#141412" transform="translate(0,0)"/>
<path d="" fill="#0E0E0D" transform="translate(0,0)"/>
<path d="" fill="#141310" transform="translate(0,0)"/>
<path d="" fill="#110F10" transform="translate(0,0)"/>
<path d="" fill="#120F11" transform="translate(0,0)"/>
<path d="" fill="#110F11" transform="translate(0,0)"/>
<path d="" fill="#141215" transform="translate(0,0)"/>
<path d="" fill="#101110" transform="translate(0,0)"/>
<path d="" fill="#111310" transform="translate(0,0)"/>
<path d="" fill="#111010" transform="translate(0,0)"/>
<path d="" fill="#10100F" transform="translate(0,0)"/>
<path d="" fill="#121412" transform="translate(0,0)"/>
<path d="" fill="#252624" transform="translate(0,0)"/>
<path d="" fill="#141313" transform="translate(0,0)"/>
<path d="" fill="#131210" transform="translate(0,0)"/>
<path d="" fill="#101011" transform="translate(0,0)"/>
<path d="" fill="#131210" transform="translate(0,0)"/>
<path d="" fill="#100F10" transform="translate(0,0)"/>
<path d="" fill="#131212" transform="translate(0,0)"/>
<path d="" fill="#110F10" transform="translate(0,0)"/>
<path d="" fill="#121112" transform="translate(0,0)"/>
<path d="" fill="#252523" transform="translate(0,0)"/>
<path d="" fill="#131110" transform="translate(0,0)"/>
<path d="" fill="#262525" transform="translate(0,0)"/>
<path d="" fill="#0D0E0A" transform="translate(0,0)"/>
<path d="" fill="#232422" transform="translate(0,0)"/>
<path d="" fill="#0D0F0D" transform="translate(0,0)"/>
<path d="" fill="#0E0F0F" transform="translate(0,0)"/>
<path d="" fill="#232524" transform="translate(0,0)"/>
<path d="" fill="#111412" transform="translate(0,0)"/>
<path d="" fill="#141311" transform="translate(0,0)"/>
<path d="" fill="#131414" transform="translate(0,0)"/>
<path d="" fill="#161511" transform="translate(0,0)"/>
<path d="" fill="#212322" transform="translate(0,0)"/>
<path d="" fill="#0E0D10" transform="translate(0,0)"/>
<path d="" fill="#11120F" transform="translate(0,0)"/>
<path d="" fill="#201E1F" transform="translate(0,0)"/>
<path d="" fill="#252423" transform="translate(0,0)"/>
<path d="" fill="#161416" transform="translate(0,0)"/>
<path d="" fill="#11110F" transform="translate(0,0)"/>
<path d="" fill="#282724" transform="translate(0,0)"/>
<path d="" fill="#101112" transform="translate(0,0)"/>
<path d="" fill="#252223" transform="translate(0,0)"/>
<path d="" fill="#121211" transform="translate(0,0)"/>
<path d="" fill="#141415" transform="translate(0,0)"/>
<path d="" fill="#242624" transform="translate(0,0)"/>
<path d="" fill="#0F0F0E" transform="translate(0,0)"/>
<path d="" fill="#161314" transform="translate(0,0)"/>
<path d="" fill="#131514" transform="translate(0,0)"/>
<path d="" fill="#111110" transform="translate(0,0)"/>
<path d="" fill="#120F11" transform="translate(0,0)"/>
<path d="" fill="#222324" transform="translate(0,0)"/>
<path d="" fill="#10100D" transform="translate(0,0)"/>
<path d="" fill="#10120F" transform="translate(0,0)"/>
<path d="" fill="#110F11" transform="translate(0,0)"/>
<path d="" fill="#131112" transform="translate(0,0)"/>
<path d="" fill="#121210" transform="translate(0,0)"/>
<path d="" fill="#121211" transform="translate(0,0)"/>
<path d="" fill="#141314" transform="translate(0,0)"/>
<path d="" fill="#151413" transform="translate(0,0)"/>
<path d="" fill="#161415" transform="translate(0,0)"/>
<path d="" fill="#171717" transform="translate(0,0)"/>
<path d="" fill="#10110F" transform="translate(0,0)"/>
<path d="" fill="#141314" transform="translate(0,0)"/>
<path d="" fill="#232324" transform="translate(0,0)"/>
<path d="" fill="#111011" transform="translate(0,0)"/>
<path d="" fill="#101010" transform="translate(0,0)"/>
<path d="" fill="#11110E" transform="translate(0,0)"/>
<path d="" fill="#100F0E" transform="translate(0,0)"/>
<path d="" fill="#0F0E0E" transform="translate(0,0)"/>
<path d="" fill="#202022" transform="translate(0,0)"/>
<path d="" fill="#242525" transform="translate(0,0)"/>
<path d="" fill="#0F0E0F" transform="translate(0,0)"/>
<path d="" fill="#202121" transform="translate(0,0)"/>
<path d="" fill="#111210" transform="translate(0,0)"/>
<path d="" fill="#110F0F" transform="translate(0,0)"/>
<path d="" fill="#0F0E0E" transform="translate(0,0)"/>
<path d="" fill="#0F0F0D" transform="translate(0,0)"/>
<path d="" fill="#20201F" transform="translate(0,0)"/>
<path d="" fill="#171717" transform="translate(0,0)"/>
<path d="" fill="#0F0D0B" transform="translate(0,0)"/>
<path d="" fill="#111012" transform="translate(0,0)"/>
<path d="" fill="#0F0F10" transform="translate(0,0)"/>
<path d="" fill="#212020" transform="translate(0,0)"/>
<path d="" fill="#100F10" transform="translate(0,0)"/>
<path d="" fill="#101110" transform="translate(0,0)"/>
<path d="" fill="#110E0E" transform="translate(0,0)"/>
<path d="" fill="#101111" transform="translate(0,0)"/>
<path d="" fill="#0B0E0B" transform="translate(0,0)"/>
<path d="" fill="#0F100E" transform="translate(0,0)"/>
<path d="" fill="#0F0F0F" transform="translate(0,0)"/>
<path d="" fill="#12120E" transform="translate(0,0)"/>
<path d="" fill="#0F110D" transform="translate(0,0)"/>
<path d="" fill="#161417" transform="translate(0,0)"/>
<path d="" fill="#0E100E" transform="translate(0,0)"/>
<path d="" fill="#1F221D" transform="translate(0,0)"/>
<path d="" fill="#1F1F1D" transform="translate(0,0)"/>
<path d="" fill="#222120" transform="translate(0,0)"/>
<path d="" fill="#100F0F" transform="translate(0,0)"/>
<path d="" fill="#202020" transform="translate(0,0)"/>
<path d="" fill="#242122" transform="translate(0,0)"/>
<path d="" fill="#0E0F0E" transform="translate(0,0)"/>
<path d="" fill="#100F10" transform="translate(0,0)"/>
<path d="" fill="#212021" transform="translate(0,0)"/>
<path d="" fill="#131414" transform="translate(0,0)"/>
<path d="" fill="#151312" transform="translate(0,0)"/>
<path d="" fill="#11110F" transform="translate(0,0)"/>
<path d="" fill="#0E0E0E" transform="translate(0,0)"/>
<path d="" fill="#21211F" transform="translate(0,0)"/>
<path d="" fill="#111010" transform="translate(0,0)"/>
<path d="" fill="#101110" transform="translate(0,0)"/>
<path d="" fill="#0E0D0E" transform="translate(0,0)"/>
<path d="" fill="#11100F" transform="translate(0,0)"/>
<path d="" fill="#0E100F" transform="translate(0,0)"/>
<path d="" fill="#20211F" transform="translate(0,0)"/>
<path d="" fill="#101011" transform="translate(0,0)"/>
<path d="" fill="#252121" transform="translate(0,0)"/>
<path d="" fill="#121412" transform="translate(0,0)"/>
<path d="" fill="#13120F" transform="translate(0,0)"/>
<path d="" fill="#131110" transform="translate(0,0)"/>
<path d="" fill="#141312" transform="translate(0,0)"/>
<path d="" fill="#1B1B1B" transform="translate(0,0)"/>
<path d="" fill="#1D1C1C" transform="translate(0,0)"/>
<path d="" fill="#1A1A1A" transform="translate(0,0)"/>
<path d="" fill="#1A1D1C" transform="translate(0,0)"/>
<path d="" fill="#101210" transform="translate(0,0)"/>
<path d="" fill="#121212" transform="translate(0,0)"/>
<path d="" fill="#121211" transform="translate(0,0)"/>
<path d="" fill="#10100F" transform="translate(0,0)"/>
<path d="" fill="#111211" transform="translate(0,0)"/>
<path d="" fill="#131212" transform="translate(0,0)"/>
<path d="" fill="#0E0D0E" transform="translate(0,0)"/>
<path d="" fill="#0F100F" transform="translate(0,0)"/>
<path d="" fill="#121212" transform="translate(0,0)"/>
<path d="" fill="#0E0D0F" transform="translate(0,0)"/>
<path d="" fill="#0E0D0D" transform="translate(0,0)"/>
<path d="" fill="#161619" transform="translate(0,0)"/>
<path d="" fill="#111211" transform="translate(0,0)"/>
<path d="" fill="#131210" transform="translate(0,0)"/>
<path d="" fill="#121011" transform="translate(0,0)"/>
<path d="" fill="#0F1110" transform="translate(0,0)"/>
<path d="" fill="#121211" transform="translate(0,0)"/>
<path d="" fill="#0F110F" transform="translate(0,0)"/>
<path d="" fill="#101011" transform="translate(0,0)"/>
<path d="" fill="#111211" transform="translate(0,0)"/>
<path d="" fill="#10100F" transform="translate(0,0)"/>
<path d="" fill="#121311" transform="translate(0,0)"/>
<path d="" fill="#100F10" transform="translate(0,0)"/>
<path d="" fill="#161412" transform="translate(0,0)"/>
<path d="" fill="#131011" transform="translate(0,0)"/>
<path d="" fill="#21221F" transform="translate(0,0)"/>
<path d="" fill="#10100D" transform="translate(0,0)"/>
<path d="" fill="#121110" transform="translate(0,0)"/>
<path d="" fill="#100E0F" transform="translate(0,0)"/>
<path d="" fill="#141513" transform="translate(0,0)"/>
<path d="" fill="#111211" transform="translate(0,0)"/>
<path d="" fill="#0D0B0D" transform="translate(0,0)"/>
<path d="" fill="#0C0D0C" transform="translate(0,0)"/>
<path d="" fill="#110E0F" transform="translate(0,0)"/>
<path d="" fill="#111212" transform="translate(0,0)"/>
<path d="" fill="#21221E" transform="translate(0,0)"/>
<path d="" fill="#202221" transform="translate(0,0)"/>
<path d="" fill="#141312" transform="translate(0,0)"/>
<path d="" fill="#14110F" transform="translate(0,0)"/>
<path d="" fill="#21201F" transform="translate(0,0)"/>
<path d="" fill="#1C1E1D" transform="translate(0,0)"/>
<path d="" fill="#1F201D" transform="translate(0,0)"/>
<path d="" fill="#212324" transform="translate(0,0)"/>
<path d="" fill="#110F0E" transform="translate(0,0)"/>
<path d="" fill="#121311" transform="translate(0,0)"/>
<path d="" fill="#101110" transform="translate(0,0)"/>
<path d="" fill="#131212" transform="translate(0,0)"/>
<path d="" fill="#1C1C1C" transform="translate(0,0)"/>
<path d="" fill="#191818" transform="translate(0,0)"/>
<path d="" fill="#232321" transform="translate(0,0)"/>
<path d="" fill="#1D1C1B" transform="translate(0,0)"/>
<path d="" fill="#1C1B1B" transform="translate(0,0)"/>
<path d="" fill="#191917" transform="translate(0,0)"/>
<path d="" fill="#1A1A19" transform="translate(0,0)"/>
<path d="" fill="#191B1B" transform="translate(0,0)"/>
<path d="" fill="#1C1B1B" transform="translate(0,0)"/>
<path d="" fill="#252323" transform="translate(0,0)"/>
<path d="" fill="#131010" transform="translate(0,0)"/>
<path d="" fill="#161212" transform="translate(0,0)"/>
<path d="" fill="#141514" transform="translate(0,0)"/>
<path d="" fill="#141211" transform="translate(0,0)"/>
<path d="" fill="#121113" transform="translate(0,0)"/>
<path d="" fill="#121212" transform="translate(0,0)"/>
<path d="" fill="#12110F" transform="translate(0,0)"/>
<path d="" fill="#151413" transform="translate(0,0)"/>
<path d="" fill="#141110" transform="translate(0,0)"/>
<path d="" fill="#111110" transform="translate(0,0)"/>
<path d="" fill="#242424" transform="translate(0,0)"/>
<path d="" fill="#282829" transform="translate(0,0)"/>
<path d="" fill="#252523" transform="translate(0,0)"/>
<path d="" fill="#201F1D" transform="translate(0,0)"/>
<path d="" fill="#1F1C1E" transform="translate(0,0)"/>
<path d="" fill="#262627" transform="translate(0,0)"/>
<path d="" fill="#1D1D1C" transform="translate(0,0)"/>
<path d="" fill="#20221F" transform="translate(0,0)"/>
<path d="" fill="#252425" transform="translate(0,0)"/>
<path d="" fill="#1E1D1C" transform="translate(0,0)"/>
<path d="" fill="#212423" transform="translate(0,0)"/>
<path d="" fill="#1D1D1C" transform="translate(0,0)"/>
<path d="" fill="#242628" transform="translate(0,0)"/>
<path d="" fill="#1E2120" transform="translate(0,0)"/>
<path d="" fill="#21221F" transform="translate(0,0)"/>
<path d="" fill="#1F1F1C" transform="translate(0,0)"/>
<path d="" fill="#1E1F1F" transform="translate(0,0)"/>
<path d="" fill="#22231F" transform="translate(0,0)"/>
<path d="" fill="#232423" transform="translate(0,0)"/>
<path d="" fill="#232324" transform="translate(0,0)"/>
<path d="" fill="#252427" transform="translate(0,0)"/>
<path d="" fill="#212421" transform="translate(0,0)"/>
<path d="" fill="#262425" transform="translate(0,0)"/>
<path d="" fill="#262726" transform="translate(0,0)"/>
<path d="" fill="#272727" transform="translate(0,0)"/>
</svg>
